<?xml version="1.0" encoding="utf-8"?>
<!-- Generator: Adobe Illustrator 16.0.0, SVG Export Plug-In . SVG Version: 6.00 Build 0)  -->
<!DOCTYPE svg PUBLIC "-//W3C//DTD SVG 1.1//EN" "http://www.w3.org/Graphics/SVG/1.1/DTD/svg11.dtd">
<svg version="1.1" id="Layer_1" xmlns="http://www.w3.org/2000/svg" xmlns:xlink="http://www.w3.org/1999/xlink" x="0px" y="0px"
	 width="960px" height="560px" viewBox="0 0 960 560" style="enable-background:new 0 0 960 560;" xml:space="preserve">
<rect x="433.5" y="456.5" style="fill:#C69C6D;stroke:#E6E6E6;stroke-miterlimit:10;" width="85" height="49"/>
<circle style="fill:none;stroke:#B3B3B3;stroke-miterlimit:10;" cx="475.1" cy="434.1" r="16.7"/>
<ellipse style="fill:#FFFFFF;stroke:#B3B3B3;stroke-miterlimit:10;" cx="457.9" cy="503.7" rx="5.4" ry="4.8"/>
<ellipse style="fill:#FFFFFF;stroke:#B3B3B3;stroke-miterlimit:10;" cx="497.2" cy="503.7" rx="5.4" ry="4.8"/>
<path style="fill:none;stroke:#B3B3B3;stroke-miterlimit:10;" d="M463.3,445.9c0,0-14.4,6.2-13.7,9.6"/>
<path style="fill:none;stroke:#B3B3B3;stroke-miterlimit:10;" d="M487,445.7c0,0,12.3,3.7,18.8,9.8"/>
<ellipse style="fill:none;stroke:#B3B3B3;stroke-miterlimit:10;" cx="395.9" cy="437.3" rx="16.4" ry="17"/>
<path style="fill:none;stroke:#B3B3B3;stroke-miterlimit:10;" d="M433.4,472.7"/>
<path style="fill:none;stroke:#B3B3B3;stroke-miterlimit:10;" d="M406.1,450.6"/>
<path style="fill:none;stroke:#B3B3B3;stroke-miterlimit:10;" d="M383.5,448.5"/>
<ellipse style="fill:none;stroke:#B3B3B3;stroke-miterlimit:10;" cx="551" cy="446.2" rx="16.4" ry="16.2"/>
<ellipse style="fill:none;stroke:#B3B3B3;stroke-miterlimit:10;" cx="436.1" cy="410.8" rx="16.4" ry="16"/>
<path style="fill:none;stroke:#B3B3B3;stroke-miterlimit:10;" d="M531.7,430.3c0,8.6-7.2,15.5-16,15.5c-8.9,0-16-7-16-15.5
	c0-8.6,7.2-15.5,16-15.5C524.5,414.7,531.7,421.7,531.7,430.3z"/>
<g>
	<path style="fill:none;stroke:#B3B3B3;stroke-miterlimit:10;" d="M374.8,459.6c-1.4-0.1-8.5-4.5-4.7-5c1.7-0.2,4.1,2.2,5.6,3"/>
	<path style="fill:none;stroke:#B3B3B3;stroke-miterlimit:10;" d="M375.2,457.6c-0.6-1.1-3-6.9-0.8-7c1.6-0.1,3.2,5.1,3.2,6.4"/>
	<path style="fill:none;stroke:#B3B3B3;stroke-miterlimit:10;" d="M374,459.9c0.8,1.9,2.6,4.7,5.1,4.2"/>
	<path style="fill:none;stroke:#B3B3B3;stroke-miterlimit:10;" d="M377.6,455.8c2.5-0.1,5.2,3.3,5.1,5.6"/>
</g>
<g>
	<path style="fill:none;stroke:#B3B3B3;stroke-miterlimit:10;" d="M563.3,471.4c1.2-0.3,6.8-4.9,3.4-4.9c-1.5,0-3.2,2.4-4.4,3.2"/>
	<path style="fill:none;stroke:#B3B3B3;stroke-miterlimit:10;" d="M562.8,469.8c0.3-1,1.7-6.3-0.2-6.1c-1.4,0.1-2.1,4.7-1.9,5.9"/>
	<path style="fill:none;stroke:#B3B3B3;stroke-miterlimit:10;" d="M564,471.6c-0.4,1.7-1.6,4.4-3.8,4.2"/>
	<path style="fill:none;stroke:#B3B3B3;stroke-miterlimit:10;" d="M560.4,468.6c-2.1,0.2-4.1,3.5-3.7,5.5"/>
</g>
<g>
	<path style="fill:none;stroke:#B3B3B3;stroke-miterlimit:10;" d="M529.4,449.8c1-0.5,4.7-5.6,1.9-4.8c-1.3,0.3-2.2,2.7-3.1,3.7"/>
	<path style="fill:none;stroke:#B3B3B3;stroke-miterlimit:10;" d="M528.6,448.5c0.1-0.9,0.2-5.7-1.5-5.1c-1.1,0.4-0.8,4.4-0.4,5.4"
		/>
	<path style="fill:none;stroke:#B3B3B3;stroke-miterlimit:10;" d="M530,449.8c0,1.5-0.5,4-2.4,4.3"/>
	<path style="fill:none;stroke:#B3B3B3;stroke-miterlimit:10;" d="M526.3,448c-1.8,0.6-2.7,3.8-2,5.4"/>
</g>
<g>
	<path style="fill:none;stroke:#B3B3B3;stroke-miterlimit:10;" d="M418.8,431.1c-1-0.5-4.7-5.6-1.9-4.8c1.3,0.3,2.2,2.7,3.1,3.7"/>
	<path style="fill:none;stroke:#B3B3B3;stroke-miterlimit:10;" d="M419.6,429.8c-0.1-0.9-0.2-5.7,1.5-5.1c1.1,0.4,0.8,4.4,0.4,5.4"
		/>
	<path style="fill:none;stroke:#B3B3B3;stroke-miterlimit:10;" d="M418.2,431.1c0,1.5,0.5,4,2.4,4.3"/>
	<path style="fill:none;stroke:#B3B3B3;stroke-miterlimit:10;" d="M421.9,429.3c1.8,0.6,2.7,3.8,2,5.4"/>
</g>
<path style="fill:none;stroke:#B3B3B3;stroke-miterlimit:10;" d="M521.7,477.6"/>
<path style="fill:none;stroke:#B3B3B3;stroke-miterlimit:10;" d="M539.1,457.3"/>
<path style="fill:none;stroke:#B3B3B3;stroke-miterlimit:10;" d="M411.2,443.3c0,0,27.1-2.2,40.9,8.7"/>
<path style="fill:none;stroke:#B3B3B3;stroke-miterlimit:10;" d="M387.2,471c0,0-2.7,19.4,2.4,30.2"/>
<path style="fill:none;stroke:#B3B3B3;stroke-miterlimit:10;" d="M557,479.4c0,0,0.1,4.4-2.8,28.2"/>
<path style="fill:none;stroke:#B3B3B3;stroke-miterlimit:10;" d="M532.3,454.2c0,0-10.6,6.1-10.6,15.4"/>
<path style="fill:none;stroke:#B3B3B3;stroke-miterlimit:10;" d="M427.5,498.2c2.5-6.9-5.6-36.3-5.6-36.3"/>
<path style="fill:none;stroke:#B3B3B3;stroke-miterlimit:10;" d="M416.7,461.9c0,0,15.2-5.8,15.2-2"/>
<path style="fill:none;stroke:#B3B3B3;stroke-miterlimit:10;" d="M450,419.4c0,0,6.8,3.4,9.3,9.3"/>
<path style="fill:none;stroke:#B3B3B3;stroke-miterlimit:10;" d="M424.9,422.5c0,0-7.2,11.7-4.9,20.6"/>
<path style="fill:none;stroke:#B3B3B3;stroke-miterlimit:10;" d="M501.2,437c0,0-7.5,3.6-9.6,10.3"/>
<g>
	
		<image style="overflow:visible;opacity:0.6;" width="217" height="171" xlink:href="497DCA45.png"  transform="matrix(1 0 0 1 -14 397)">
	</image>
	<g>
		<path style="fill:none;stroke:#B3B3B3;stroke-miterlimit:10;" d="M155.4,559.1c23.6-16.6,38.2-40,38.2-65.8
			c0-50.4-55.6-91.2-124.1-91.2c-29.7,0-57,7.7-78.4,20.5"/>
	</g>
</g>
<g>
	<g style="opacity:0.6;">
		<path style="fill:none;stroke:#000000;stroke-miterlimit:10;" d="M123.7,550.1"/>
	</g>
	<g>
		<path style="fill:none;stroke:#B3B3B3;stroke-miterlimit:10;" d="M121.7,548.1"/>
	</g>
</g>
<g>
	
		<image style="overflow:visible;opacity:0.6;" width="39" height="25" xlink:href="497DCA46.png"  transform="matrix(1 0 0 1 160 477)">
	</image>
	<g>
		<polyline style="fill:#FCEE21;" points="170.1,493.6 188.9,482 164,482 		"/>
		<polyline style="fill:none;stroke:#B3B3B3;stroke-miterlimit:10;" points="170.1,493.1 188.9,481.5 164,481.5 		"/>
	</g>
</g>
<g>
	
		<image style="overflow:visible;opacity:0.6;" width="69" height="42" xlink:href="497DCA47.png"  transform="matrix(1 0 0 1 110 460)">
	</image>
	<g>
		<polygon style="fill:#09D112;" points="154.8,464.7 170.4,493 129.7,493 114.1,464.6 		"/>
	</g>
</g>
<path style="fill:#00FFFF;stroke:#B3B3B3;stroke-miterlimit:10;" d="M61.8,419.9l2.6,33L61.8,419.9z"/>
<path style="fill:none;stroke:#B3B3B3;stroke-miterlimit:10;" d="M57,427.4c0,0,4.8,6.4,2.8,12.3c0,0-3.4,6.6,3.5,12.3"/>
<polyline style="fill:#4ADDD9;stroke:#CCCCCC;stroke-miterlimit:10;" points="65,452.5 110.8,452.5 113.8,420.5 61,420.5 "/>
<g>
	
		<image style="overflow:visible;opacity:0.6;" width="46" height="46" xlink:href="497DCA4E.png"  transform="matrix(1 0 0 1 177 408)">
	</image>
	<g>
		<ellipse style="fill:none;stroke:#B3B3B3;stroke-miterlimit:10;" cx="197.6" cy="428.8" rx="15.9" ry="16.2"/>
	</g>
</g>
<g>
	
		<image style="overflow:visible;opacity:0.6;" width="43" height="42" xlink:href="497DCA4F.png"  transform="matrix(1 0 0 1 66 356)">
	</image>
	<g>
		<ellipse style="fill:none;stroke:#B3B3B3;stroke-miterlimit:10;" cx="85.5" cy="374.8" rx="14.6" ry="13.9"/>
	</g>
</g>
<g>
	<g style="opacity:0.6;">
		<path style="fill:none;stroke:#000000;stroke-miterlimit:10;" d="M191.7,444.8"/>
	</g>
	<g>
		<path style="fill:none;stroke:#B3B3B3;stroke-miterlimit:10;" d="M189.7,442.8"/>
	</g>
</g>
<g>
	
		<image style="overflow:visible;opacity:0.6;" width="33" height="32" xlink:href="497DCA42.png"  transform="matrix(1 0 0 1 156 431)">
	</image>
	<g>
		<path style="fill:none;stroke:#B3B3B3;stroke-miterlimit:10;" d="M180.1,435.9c0,0-12.7,9.8-19.7,18.3"/>
	</g>
</g>
<g>
	
		<image style="overflow:visible;opacity:0.6;" width="36" height="52" xlink:href="497DCA43.png"  transform="matrix(1 0 0 1 181 437)">
	</image>
	<g>
		<path style="fill:none;stroke:#B3B3B3;stroke-miterlimit:10;" d="M206.8,442c0,0,2.9,12.7,0,20.3c0,0-1.8,4.5-21,18.2"/>
	</g>
</g>
<g>
	
		<image style="overflow:visible;opacity:0.6;" width="53" height="95" xlink:href="497DCA44.png"  transform="matrix(1 0 0 1 185 394)">
	</image>
	<g>
		<path style="fill:none;stroke:#B3B3B3;stroke-miterlimit:10;" d="M189.7,414.9c-0.4-9.3,3.5-15.9,3.5-15.9
			c8.8-3.1,34.7,16.4,34.7,16.4c6.5,5.8-14.3,51.4-14.3,51.4c1,0.8-7,5.9-13.3,9.6c-3.9,2.3-7,4.1-7,4.1"/>
	</g>
</g>
<g>
	
		<image style="overflow:visible;opacity:0.6;" width="19" height="34" xlink:href="497DCA41.png"  transform="matrix(1 0 0 1 193 471)">
	</image>
	<g>
		<path style="fill:none;stroke:#B3B3B3;stroke-miterlimit:10;" d="M197.5,478v17.1c0,0,2.1,2.8,5.2,0c0,0,0.3-20-2.4-18.7"/>
	</g>
</g>
<g>
	
		<image style="overflow:visible;opacity:0.6;" width="38" height="27" xlink:href="9F2E4391.png"  transform="matrix(1 0 0 1 189 490)">
	</image>
	<g>
		<path style="fill:none;stroke:#B3B3B3;stroke-miterlimit:10;" d="M202.6,495.1c-1.8-0.1,15.3,3.1,15.2,3.9c0,0,1.3,1.8,0,4.4
			l-15.2-4.2c0,0,1.3,7.3,0,8.6l-5-2.2c0,0,2-7.5,0-6.2l-4.5,1.5"/>
	</g>
</g>
<g>
	
		<image style="overflow:visible;opacity:0.6;" width="17" height="15" xlink:href="9F2E4392.png"  transform="matrix(1 0 0 1 189 490)">
	</image>
	<g>
		<line style="fill:none;stroke:#B3B3B3;stroke-miterlimit:10;" x1="197.5" y1="495.1" x2="193.6" y2="496.3"/>
	</g>
</g>
<g>
	
		<image style="overflow:visible;opacity:0.6;" width="22" height="20" xlink:href="9F2E4390.png"  transform="matrix(1 0 0 1 192 499)">
	</image>
	<g>
		<path style="fill:#FFFFFF;" d="M204.5,507c0-1.7-1.1-3-2.5-3h-2.9c-1.4,0-2.5,1.3-2.5,3l0,0c0,1.7,1.1,3,2.5,3h2.9
			C203.4,510,204.5,508.7,204.5,507L204.5,507z"/>
		<path style="fill:none;stroke:#B3B3B3;stroke-miterlimit:10;" d="M204.5,507c0-1.7-1.1-3.5-2.5-3.5h-2.9c-1.4,0-2.5,1.8-2.5,3.5
			l0,0c0,1.7,1.1,3.5,2.5,3.5h2.9C203.4,510.5,204.5,508.7,204.5,507L204.5,507z"/>
	</g>
</g>
<g>
	
		<image style="overflow:visible;opacity:0.6;" width="21" height="21" xlink:href="9F2E438C.png"  transform="matrix(1 0 0 1 209 495)">
	</image>
	<g>
		<path style="fill:#FFFFFF;" d="M220.9,503.5c0-1.7-1-3.5-2.2-3.5h-2.5c-1.2,0-2.2,1.8-2.2,3.5l0,0c0,1.7,1,3.5,2.2,3.5h2.5
			C220,507,220.9,505.2,220.9,503.5L220.9,503.5z"/>
		<path style="fill:none;stroke:#B3B3B3;stroke-miterlimit:10;" d="M220.9,503c0-1.7-1-3.5-2.2-3.5h-2.5c-1.2,0-2.2,1.8-2.2,3.5l0,0
			c0,1.7,1,3.5,2.2,3.5h2.5C220,506.5,220.9,504.7,220.9,503L220.9,503z"/>
	</g>
</g>
<g>
	
		<image style="overflow:visible;opacity:0.6;" width="23" height="23" xlink:href="9F2E438D.png"  transform="matrix(1 0 0 1 146 448)">
	</image>
	<g>
		<path style="fill:#ED1E79;" d="M159.9,454.8c1,1.2,0.8,2.9-0.3,3.9l-4,3.5c-1.1,1-2.9,0.9-3.8-0.3l-1.1-1.3
			c-1-1.2-0.8-2.9,0.3-3.9l4-3.5c1.1-1,2.9-0.9,3.8,0.3L159.9,454.8z"/>
	</g>
</g>
<g>
	
		<image style="overflow:visible;opacity:0.6;" width="30" height="45" xlink:href="9F2E438E.png"  transform="matrix(1 0 0 1 51 378)">
	</image>
	<g>
		<path style="fill:none;stroke:#B3B3B3;stroke-miterlimit:10;" d="M72.6,382.7c0,0-19.4,19.2-15.9,31.2"/>
	</g>
</g>
<g>
	
		<image style="overflow:visible;opacity:0.6;" width="21" height="24" xlink:href="9F2E438F.png"  transform="matrix(1 0 0 1 48 411)">
	</image>
	<g>
		<path style="fill:#FF7BAC;" d="M60,424c0,1.5-1.1,3-2.6,3h-2.6c-1.5,0-2.8-1.5-2.8-3v-5.9c0-1.5,1.3-3.1,2.8-3.1h2.6
			c1.5,0,2.6,1.5,2.6,3.1V424z"/>
	</g>
</g>
<g>
	
		<image style="overflow:visible;opacity:0.6;" width="23" height="46" xlink:href="9F2E4383.png"  transform="matrix(1 0 0 1 93 378)">
	</image>
	<g>
		<path style="fill:none;stroke:#B3B3B3;stroke-miterlimit:10;" d="M97.5,382.7c0,0,12.6,23,8.7,32.9"/>
	</g>
</g>
<g>
	
		<image style="overflow:visible;opacity:0.6;" width="22" height="21" xlink:href="9F2E4385.png"  transform="matrix(1 0 0 1 51 477)">
	</image>
	<g>
		<path style="fill:#FFFFFF;" d="M64,486.2c0,1.5-1,2.8-2.6,2.8h-2.6c-1.5,0-2.9-1.2-2.9-2.8v-1.8c0-1.5,1.4-2.4,2.9-2.4h2.6
			c1.5,0,2.6,0.9,2.6,2.4V486.2z"/>
		<path style="fill:none;stroke:#B3B3B3;stroke-miterlimit:10;" d="M64.5,486.2c0,1.5-1.5,3.3-3.1,3.3h-2.6c-1.5,0-2.4-1.7-2.4-3.3
			v-1.8c0-1.5,0.9-2.9,2.4-2.9h2.6c1.5,0,3.1,1.4,3.1,2.9V486.2z"/>
	</g>
</g>
<g>
	
		<image style="overflow:visible;opacity:0.6;" width="22" height="21" xlink:href="9F2E4386.png"  transform="matrix(1 0 0 1 62 477)">
	</image>
	<g>
		<path style="fill:#FFFFFF;" d="M75,486.2c0,1.5-0.8,2.8-2.3,2.8h-2.6c-1.5,0-3.1-1.2-3.1-2.8v-1.8c0-1.5,1.6-2.4,3.1-2.4h2.6
			c1.5,0,2.3,0.9,2.3,2.4V486.2z"/>
		<path style="fill:none;stroke:#B3B3B3;stroke-miterlimit:10;" d="M75.5,486.2c0,1.5-1.3,3.3-2.8,3.3h-2.6c-1.5,0-2.6-1.7-2.6-3.3
			v-1.8c0-1.5,1.1-2.9,2.6-2.9h2.6c1.5,0,2.8,1.4,2.8,2.9V486.2z"/>
	</g>
</g>
<g>
	
		<image style="overflow:visible;opacity:0.6;" width="45" height="42" xlink:href="9F2E438A.png"  transform="matrix(1 0 0 1 57 448)">
	</image>
	<g>
		<path style="fill:none;stroke:#B3B3B3;stroke-miterlimit:10;" d="M61.5,481.7c0,0,3-15,13.4-14.6c0,0,22.1,0.2,16.9-14.9"/>
	</g>
</g>
<g>
	
		<image style="overflow:visible;opacity:0.6;" width="19" height="16" xlink:href="9F2E438B.png"  transform="matrix(1 0 0 1 74 478)">
	</image>
	<g>
		<polyline style="fill:#ED1C24;" points="79,485 79,483.5 84,483 84,485 		"/>
		<polyline style="fill:none;stroke:#FF1D25;stroke-miterlimit:10;" points="78.5,485 78.5,483.5 84.5,483 84.5,485 		"/>
	</g>
</g>
<g>
	<g style="opacity:0.6;">
		<path style="fill:none;stroke:#000000;stroke-miterlimit:10;" d="M65.1,404"/>
	</g>
	<g>
		<path style="fill:none;stroke:#B3B3B3;stroke-miterlimit:10;" d="M63.1,402"/>
	</g>
</g>
<g>
	
		<image style="overflow:visible;opacity:0.6;" width="74" height="30" xlink:href="9F2E4384.png"  transform="matrix(1 0 0 1 65 472)">
	</image>
	<g>
		<path style="fill:none;stroke:#B3B3B3;stroke-miterlimit:10;" d="M69.8,481.7c0,0,15.5-8.9,32.4-2.6c0,0,19.9,7.7,27.5,14.2"/>
	</g>
</g>
<g>
	
		<image style="overflow:visible;opacity:0.6;" width="61" height="23" xlink:href="9F2E4387.png"  transform="matrix(1 0 0 1 58 346)">
	</image>
	<g>
		<path style="fill:none;stroke:#B3B3B3;stroke-miterlimit:10;" d="M63.1,359.8c0,0,23-20.5,46.7,0"/>
	</g>
</g>
<g>
	
		<image style="overflow:visible;opacity:0.6;" width="21" height="22" xlink:href="9F2E4388.png"  transform="matrix(1 0 0 1 684 446)">
	</image>
	<g>
		<line style="fill:none;stroke:#B3B3B3;stroke-miterlimit:10;" x1="696.1" y1="451.3" x2="688.5" y2="458.7"/>
	</g>
</g>
<g>
	
		<image style="overflow:visible;opacity:0.6;" width="21" height="15" xlink:href="9F2E4389.png"  transform="matrix(1 0 0 1 684 500)">
	</image>
	<g>
		<line style="fill:none;stroke:#B3B3B3;stroke-miterlimit:10;" x1="688.9" y1="505.5" x2="696.4" y2="506.2"/>
	</g>
</g>
<g>
	
		<image style="overflow:visible;opacity:0.6;" width="38" height="38" xlink:href="9F2E4244.png"  transform="matrix(1 0 0 1 695 397)">
	</image>
	<g>
		<ellipse style="fill:none;stroke:#B3B3B3;stroke-miterlimit:10;" cx="712.4" cy="414.1" rx="12" ry="11.8"/>
	</g>
</g>
<g>
	
		<image style="overflow:visible;opacity:0.6;" width="23" height="20" xlink:href="9F2E4245.png"  transform="matrix(1 0 0 1 698 420)">
	</image>
	<g>
		<path style="fill:#00FF00;" d="M706.9,425.4c0,0-4,1.4-4,2.8c0,0,4.3,2,5.8,2.6c0,0,2.8-3.4,3.2-2.6
			C711.9,428.2,705.3,425.9,706.9,425.4z"/>
		<path style="fill:none;stroke:#0071BC;stroke-miterlimit:10;" d="M706.9,425.4c0,0-4,1.4-4,2.8c0,0,4.3,2,5.8,2.6
			c0,0,2.8-3.4,3.2-2.6C711.9,428.2,705.3,425.9,706.9,425.4z"/>
	</g>
</g>
<g>
	
		<image style="overflow:visible;opacity:0.6;" width="24" height="19" xlink:href="9F2E4246.png"  transform="matrix(1 0 0 1 706 421)">
	</image>
	<g>
		<path style="fill:none;stroke:#0071BC;stroke-miterlimit:10;" d="M711.9,428.2c0,0,2.2,1.1,3.2,2.6c0,0,4.1-2.8,5.3-2.7
			c0,0-2.6-2.2-3.3-2.1C717.1,426,714.8,427.7,711.9,428.2z"/>
	</g>
</g>
<g>
	
		<image style="overflow:visible;opacity:0.6;" width="21" height="43" xlink:href="9F2E4247.png"  transform="matrix(1 0 0 1 691 423)">
	</image>
	<g>
		<path style="fill:none;stroke:#0071BC;stroke-miterlimit:10;" d="M702.9,428.2c0,0-14.4,14.4-1.3,28.7"/>
	</g>
</g>
<g>
	
		<image style="overflow:visible;opacity:0.6;" width="45" height="28" xlink:href="9F2E4263.png"  transform="matrix(1 0 0 1 716 423)">
	</image>
	<g>
		<path style="fill:none;stroke:#0071BC;stroke-miterlimit:10;" d="M720.3,428.1c0,0,16.5,8.2,22.1,5.6c0,0,5.3-2,5.9-2.3
			c0,0,1.2,5.1,3,5.7c0,0-9,7-24.3,4c-1.1-0.2-2.2-0.5-3.3-0.8"/>
	</g>
</g>
<g>
	
		<image style="overflow:visible;opacity:0.6;" width="15" height="29" xlink:href="9F2E4264.png"  transform="matrix(1 0 0 1 720 436)">
	</image>
	<g>
		<path style="fill:none;stroke:#0071BC;stroke-miterlimit:10;" d="M725.3,440.6c0,0,0.7,12.7,0,16.2"/>
	</g>
</g>
<g>
	
		<image style="overflow:visible;opacity:0.6;" width="14" height="42" xlink:href="9F2E4265.png"  transform="matrix(1 0 0 1 706 424)">
	</image>
	<g>
		<line style="fill:none;stroke:#0071BC;stroke-miterlimit:10;" x1="710.5" y1="429" x2="710.5" y2="458"/>
	</g>
</g>
<g>
	
		<image style="overflow:visible;opacity:0.6;" width="14" height="41" xlink:href="9F2E4266.png"  transform="matrix(1 0 0 1 708 425)">
	</image>
	<g>
		<line style="fill:none;stroke:#0071BC;stroke-miterlimit:10;" x1="713.5" y1="429" x2="713.5" y2="457"/>
	</g>
</g>
<g>
	
		<image style="overflow:visible;opacity:0.6;" width="16" height="26" xlink:href="9F2E4267.png"  transform="matrix(1 0 0 1 700 440)">
	</image>
	<g>
		<path style="fill:none;stroke:#0071BC;stroke-miterlimit:10;" d="M704.5,444.6c0,0,2.8,7.9,1.9,12.5"/>
	</g>
</g>
<g>
	
		<image style="overflow:visible;opacity:0.6;" width="18" height="16" xlink:href="9F2E4268.png"  transform="matrix(1 0 0 1 744 425)">
	</image>
	<g>
		<path style="fill:none;stroke:#B3B3B3;stroke-miterlimit:10;" d="M749.3,432.5c0.2-0.9,1.4-1.8,2.3-2c1.5-0.4,0.9,1.3,0.1,1.4"/>
	</g>
</g>
<g>
	
		<image style="overflow:visible;opacity:0.6;" width="19" height="20" xlink:href="9F2E4269.png"  transform="matrix(1 0 0 1 746 426)">
	</image>
	<g>
		<path style="fill:none;stroke:#B3B3B3;stroke-miterlimit:10;" d="M751.9,432c0.9-0.8,4-1.1,3.9,0.6c-0.2,2.6-3.8,2.4-5,4.1"/>
	</g>
</g>
<g>
	
		<image style="overflow:visible;opacity:0.6;" width="14" height="60" xlink:href="9F2E426A.png"  transform="matrix(1 0 0 1 683 454)">
	</image>
	<g>
		<line style="fill:none;stroke:#B3B3B3;stroke-miterlimit:10;" x1="688.5" y1="459" x2="688.5" y2="506"/>
	</g>
</g>
<g>
	
		<image style="overflow:visible;opacity:0.6;" width="62" height="68" xlink:href="9F2E426B.png"  transform="matrix(1 0 0 1 691 447)">
	</image>
	<g>
		<polygon style="fill:#FFFFFF;" points="744,506 744,506 696,506 696,506 696,452 696,452 744,452 744,452 		"/>
		<polygon style="fill:none;stroke:#B3B3B3;stroke-miterlimit:10;" points="744.5,506.5 744.5,506.5 696.5,506.5 696.5,506.5 
			696.5,451.5 696.5,451.5 744.5,451.5 744.5,451.5 		"/>
	</g>
</g>
<g>
	
		<image style="overflow:visible;opacity:0.6;" width="15" height="15" xlink:href="9F2E426C.png"  transform="matrix(1 0 0 1 136 472)">
	</image>
	<g>
		<path style="fill:none;stroke:#B3B3B3;stroke-miterlimit:10;" d="M141.1,476.4c-0.1,0.9,0.2,1.6,0.8,2.2"/>
	</g>
</g>
<g>
	
		<image style="overflow:visible;opacity:0.6;" width="16" height="17" xlink:href="9F2E4288.png"  transform="matrix(1 0 0 1 134 474)">
	</image>
	<g>
		<path style="fill:#FFFFFF;" d="M141.1,479C141.1,479,141,479,141.1,479c-0.1-0.1-0.2-0.2-0.3-0.2c-0.1,0-0.2,0-0.3-0.1
			c-0.1,0-0.3,0-0.4,0c-0.1,0-0.3,0.1-0.4,0.1c0.1,0-0.1,0.1-0.2,0.2c0,0,0,0.1,0,0.1c-0.1,0.1-0.1,0.3-0.1,0.5c0,0.2,0,0.5,0,0.6
			c0,0.2,0,0.5,0.1,0.6c0,0.2,0.1,0.3,0.2,0.5c0.1,0.1,0.2,0.3,0.3,0.4c0.1,0.1,0.3,0.2,0.4,0.3c0.1,0.1,0.3,0.1,0.4,0.2
			c0.1,0.1,0.3,0.1,0.4,0.1c0.2,0.1,0.3,0.1,0.3,0.1s-0.1,0-0.3,0.1c-0.1,0-0.2,0.1-0.4,0.1c-0.2,0-0.3,0-0.5,0
			c-0.2,0-0.4-0.1-0.6-0.2c-0.2-0.1-0.4-0.3-0.6-0.5c-0.1-0.2-0.3-0.5-0.4-0.8c-0.1-0.3-0.1-0.5-0.1-0.8c0-0.3,0-0.5,0-0.8
			c0-0.3,0.1-0.5,0.3-0.8c0.1-0.1,0.2-0.3,0.3-0.4c0.1-0.1,0.1-0.1,0.2-0.1l0.1,0l0,0c0.1-0.1,0,0,0.1,0l0.1,0c0.3-0.1,0.5,0,0.7,0
			c0.2,0,0.4,0.1,0.5,0.2c0.1,0.1,0.3,0.2,0.3,0.3C141,478.8,141,478.9,141.1,479C141.1,479,141.1,479,141.1,479z"/>
	</g>
</g>
<g>
	
		<image style="overflow:visible;opacity:0.6;" width="15" height="14" xlink:href="9F2E4289.png"  transform="matrix(1 0 0 1 137 473)">
	</image>
	<g>
		<path style="fill:#FFFFFF;" d="M141.3,479c0,0,0,0-0.1-0.1c0,0-0.1-0.1-0.1-0.1c0-0.1,0-0.2,0-0.2c0-0.2,0.1-0.4,0.2-0.5
			c0.1-0.1,0.3-0.2,0.5-0.3c0.2,0,0.4-0.1,0.5,0c0.2,0,0.3,0.1,0.5,0.2c0.3,0.2,0.2,0.5,0.2,0.5c0,0-0.1,0-0.1,0
			c-0.1,0-0.2,0-0.2,0.1c-0.2,0.1-0.3,0.2-0.5,0.2c-0.1,0-0.2,0.1-0.3,0.1c-0.1,0-0.2,0-0.2,0c-0.1,0-0.2,0-0.2,0.1
			C141.4,478.9,141.3,479,141.3,479z"/>
	</g>
</g>
<g>
	
		<image style="overflow:visible;opacity:0.6;" width="16" height="16" xlink:href="9F2E428A.png"  transform="matrix(1 0 0 1 137 474)">
	</image>
	<g>
		<path style="fill:#FFFFFF;" d="M143.1,478.4c0,0-0.1,0.3-0.2,0.6c-0.1,0.2,0,0.4-0.1,0.5c0,0.2,0.1,0.3,0.1,0.4v0.1h0
			c0,0-0.1-0.2-0.1-0.1l0,0l0,0l0,0l0,0l0,0.1c0,0.1,0,0,0,0c0,0,0.1,0.1,0.1,0.1c0.1,0.1,0.3,0.2,0.4,0.3c0.1,0,0.1,0.1,0.2,0.1
			c0.1,0,0.1,0,0.2,0.1c0.1,0,0.2,0,0.2,0c0,0,0,0.1-0.1,0.2c-0.1,0.1-0.3,0.2-0.5,0.3c-0.2,0.1-0.5,0.1-0.8,0
			c-0.1-0.1-0.3-0.1-0.5-0.2c-0.1-0.1-0.2-0.2-0.2-0.2l-0.1-0.1l0,0l0,0l0,0l0-0.1l0,0c-0.1-0.2-0.1-0.4-0.1-0.6
			c0-0.2,0.1-0.3,0.1-0.5c0.1-0.3,0.3-0.4,0.5-0.6C142.9,478.5,143.1,478.4,143.1,478.4z"/>
	</g>
</g>
<g>
	
		<image style="overflow:visible;opacity:0.6;" width="16" height="15" xlink:href="9F2E428B.png"  transform="matrix(1 0 0 1 137 476)">
	</image>
	<g>
		<path style="fill:#FFFFFF;" d="M143.9,480.5c0,0,0.1,0,0.1,0.1c0.1,0.1,0.2,0.2,0.3,0.5c0.1,0.2,0,0.5-0.1,0.8
			c-0.1,0.1-0.2,0.3-0.3,0.4c-0.1,0.1-0.2,0.2-0.4,0.3c-0.5,0.3-1.1,0.3-1.5,0.1c-0.2-0.1-0.3-0.2-0.4-0.3c-0.1-0.1-0.1-0.1-0.1-0.1
			s0.3-0.1,0.6-0.2c0.3-0.1,0.7-0.3,1-0.4c0.3-0.2,0.5-0.3,0.7-0.6c0.1-0.1,0.1-0.3,0.1-0.4C143.9,480.6,143.9,480.5,143.9,480.5z"
			/>
	</g>
</g>
<g>
	
		<image style="overflow:visible;opacity:0.6;" width="15" height="16" xlink:href="9F2E428C.png"  transform="matrix(1 0 0 1 134 471)">
	</image>
	<g>
		<path style="fill:none;stroke:#FFFFFF;stroke-miterlimit:10;" d="M139.1,475.6c-0.1,1,1,1.8,1.7,2"/>
	</g>
</g>
<g>
	
		<image style="overflow:visible;opacity:0.6;" width="15" height="16" xlink:href="9F2E428D.png"  transform="matrix(1 0 0 1 135 470)">
	</image>
	<g>
		<path style="fill:none;stroke:#FFFFFF;stroke-miterlimit:10;" d="M139.3,475.4c1.1,0.6,1.3,1.2,1.5,2.4"/>
	</g>
</g>
<g>
	
		<image style="overflow:visible;opacity:0.6;" width="17" height="20" xlink:href="9F2E428E.png"  transform="matrix(1 0 0 1 708 416)">
	</image>
	<g>
		<path style="fill:#1A1A1A;" d="M713.2,424.2c0.2,1.4,1,2.5,1.8,2.4c0.7-0.1,1.2-1.4,0.9-2.8c-0.2-1.4-1-2.5-1.8-2.4
			S713,422.8,713.2,424.2z"/>
		<path style="fill:none;stroke:#1A1A1A;stroke-miterlimit:10;" d="M713.2,424.2c0.2,1.4,1,2.5,1.8,2.4c0.7-0.1,1.2-1.4,0.9-2.8
			c-0.2-1.4-1-2.5-1.8-2.4S713,422.8,713.2,424.2z"/>
	</g>
</g>
<g>
	
		<image style="overflow:visible;opacity:0.6;" width="66" height="18" xlink:href="9F2E428F.png"  transform="matrix(1 0 0 1 689 443)">
	</image>
	<g>
		<rect x="694" y="448" style="fill:#662D91;" width="52" height="4"/>
		<rect x="694.5" y="448.5" style="fill:none;stroke:#B3B3B3;stroke-miterlimit:10;" width="52" height="3"/>
	</g>
</g>
<g>
	<path style="fill:none;stroke:#B3B3B3;stroke-miterlimit:10;" d="M894.9,468.3c-44.6,0-89.2,0-133.8,0c1.6-29.9-1.7-59.7-0.1-89.6
		c44.6,0,89.2,0,133.8,0C893.3,408.6,896.5,438.4,894.9,468.3z"/>
</g>
<g>
	
		<image style="overflow:visible;opacity:0.6;" width="148" height="19" xlink:href="9F2E4292.png"  transform="matrix(1 0 0 1 756 462)">
	</image>
	<g>
		<path style="fill:#F15A24;" d="M895.1,469.1c0,0.8-0.7,1.5-1.5,1.5l-131.1,1c-0.8,0-1.5-0.7-1.5-1.5l0-0.1c0-0.8,0.7-1.5,1.5-1.5
			l131.1-1c0.8,0,1.5,0.7,1.5,1.5L895.1,469.1z"/>
		<path style="fill:none;stroke:#B3B3B3;stroke-miterlimit:10;" d="M895.1,469.1c0,0.8-0.7,1.5-1.5,1.5l-131.1,1
			c-0.8,0-1.5-0.7-1.5-1.5l0-0.1c0-0.8,0.7-1.5,1.5-1.5l131.1-1c0.8,0,1.5,0.7,1.5,1.5L895.1,469.1z"/>
	</g>
</g>
<g>
	<path style="fill:#FFFFFF;stroke:#ED1C24;stroke-miterlimit:10;" d="M808.2,430.4c0.1,0,0.2,0.1,0.3,0.1c0.1,0,0.2,0.1,0.3,0.1
		c0.1,0,0.2,0.1,0.4,0.1s0.3,0,0.4,0c0.2,0,0.3,0,0.5-0.1s0.3-0.1,0.5-0.2c0.2-0.1,0.3-0.2,0.5-0.3c0.2-0.1,0.3-0.2,0.4-0.4
		c0.1-0.2,0.3-0.3,0.3-0.4c0.1-0.1,0.2-0.2,0.2-0.3s0.1-0.2,0.1-0.3c0-0.1,0-0.1,0-0.2c0-0.1,0-0.1-0.1-0.2
		c-0.1-0.1-0.1-0.1-0.2-0.1c-0.1,0-0.2-0.1-0.3-0.1c-0.1,0-0.2,0-0.3,0c-0.1,0-0.2,0-0.2,0c-0.1,0-0.2,0-0.3,0c-0.1,0-0.2,0-0.3,0
		c-0.1,0-0.2,0-0.2,0c-0.1,0-0.2,0-0.3,0c-0.1,0-0.2-0.1-0.3-0.1c-0.1-0.1-0.2-0.1-0.3-0.2s-0.2-0.2-0.2-0.3c0,0,0-0.1-0.1-0.2
		s0-0.1,0-0.2c0-0.1,0-0.1,0-0.2c0-0.1,0-0.1,0-0.2c0-0.2,0.1-0.3,0.2-0.5c0.1-0.2,0.2-0.3,0.4-0.5c0.1-0.2,0.3-0.3,0.5-0.4
		c0.2-0.1,0.3-0.3,0.5-0.4c0.2-0.1,0.3-0.2,0.5-0.3s0.3-0.2,0.5-0.3c0.2-0.1,0.4-0.2,0.6-0.2c0.2,0,0.4-0.1,0.6-0.1
		c0.1,0,0.2,0,0.3,0s0.2,0.1,0.3,0.1c0.1,0.1,0.2,0.1,0.2,0.2c0,0.1,0.1,0.2,0.1,0.3c0,0.1,0,0.1,0,0.2c0,0,0,0.1-0.1,0.1
		c0,0-0.1,0.1-0.1,0.1c0,0-0.1,0-0.1,0c-0.1,0-0.2,0-0.2,0c-0.1,0-0.1,0-0.2-0.1c-0.1,0-0.1,0-0.2-0.1s-0.1,0-0.2,0
		c-0.2,0-0.5,0-0.7,0.1c-0.2,0.1-0.5,0.2-0.7,0.3s-0.4,0.3-0.6,0.5c-0.2,0.2-0.4,0.3-0.5,0.5c-0.1,0.1-0.1,0.2-0.2,0.3
		c0,0.1-0.1,0.2-0.1,0.2c0,0.1,0,0.2,0.1,0.3s0.2,0.1,0.4,0.1c0.1,0,0.2,0,0.3,0s0.2,0,0.3,0c0.1,0,0.2,0,0.3,0c0.1,0,0.2,0,0.3,0
		c0.2,0,0.4,0,0.5,0.1c0.2,0.1,0.3,0.1,0.5,0.2s0.2,0.2,0.3,0.4c0.1,0.2,0.1,0.3,0.1,0.5c0,0.1,0,0.2-0.1,0.4c0,0.1-0.1,0.3-0.2,0.4
		c-0.1,0.1-0.1,0.3-0.2,0.4c-0.1,0.1-0.2,0.2-0.3,0.4c-0.2,0.2-0.3,0.4-0.6,0.6c-0.2,0.2-0.4,0.4-0.7,0.5c-0.2,0.1-0.5,0.3-0.7,0.3
		c-0.3,0.1-0.5,0.1-0.8,0.1c-0.1,0-0.2,0-0.4,0c-0.1,0-0.2-0.1-0.4-0.1c-0.1,0-0.2-0.1-0.3-0.2s-0.2-0.1-0.3-0.2s-0.1-0.2-0.2-0.3
		c0-0.1-0.1-0.2-0.1-0.3c0-0.1,0-0.1,0-0.2C808.1,430.4,808.2,430.4,808.2,430.4z"/>
	<path style="fill:#FFFFFF;stroke:#ED1C24;stroke-miterlimit:10;" d="M814,431.1c0-0.1,0-0.2,0-0.3c0.1-0.4,0.2-0.8,0.4-1.2
		c0.1-0.4,0.3-0.8,0.4-1.2c0.1-0.4,0.2-0.7,0.3-1c0.1-0.3,0.1-0.5,0.2-0.7c0.1-0.2,0.1-0.4,0.2-0.5s0.1-0.3,0.2-0.4
		c0-0.1,0.1-0.2,0.1-0.3c0-0.1,0.1-0.2,0.1-0.2c0.1-0.1,0.1-0.1,0.2-0.2s0.1-0.1,0.2-0.1c0.1,0,0.2,0,0.3,0.1c0.1,0,0.1,0.1,0.1,0.1
		l0,0.2c0,0,0.1,0,0.2,0c0.1,0,0.1,0,0.2,0c0.1,0,0.1,0,0.2,0c0.1,0,0.1,0,0.1,0c0.2-0.1,0.4-0.1,0.6-0.1c0.2,0,0.3-0.1,0.5-0.1
		s0.3,0,0.4-0.1s0.3,0,0.4,0c0.1,0,0.3,0,0.3,0c0.1,0,0.2,0,0.2,0.1c0.1,0,0.1,0.1,0.1,0.1c0,0,0,0.1,0,0.1c0,0,0,0.1,0,0.1
		c0,0-0.1,0.1-0.1,0.1c0,0-0.1,0.1-0.2,0.1c-0.1,0-0.2,0-0.3,0.1c0,0-0.1,0-0.2,0s-0.2,0-0.3,0.1c-0.1,0-0.2,0-0.3,0.1
		c-0.1,0-0.2,0-0.2,0h0c0,0-0.1,0-0.1,0s-0.2,0-0.3,0.1c-0.1,0-0.2,0.1-0.3,0.1c-0.1,0-0.2,0.1-0.3,0.1c-0.1,0-0.2,0.1-0.3,0.1
		c-0.1,0-0.2,0.1-0.2,0.1c-0.2,0.1-0.3,0.2-0.4,0.3s-0.2,0.3-0.3,0.4c0,0,0,0.1-0.1,0.1c0,0.1-0.1,0.1-0.1,0.2
		c0,0.1-0.1,0.2-0.1,0.3s-0.1,0.2-0.1,0.3s-0.1,0.2-0.1,0.2c0,0.1,0,0.1,0,0.2c0,0,0,0.1,0,0.1c0,0,0,0,0,0.1c0,0,0,0,0,0
		c0,0,0.1,0,0.3-0.1s0.3-0.1,0.5-0.2c0.2-0.1,0.4-0.1,0.6-0.2s0.4-0.1,0.6-0.2c0.2-0.1,0.4-0.1,0.5-0.2c0.2,0,0.3-0.1,0.3-0.1
		c0.1,0,0.2,0,0.2,0.1c0,0,0.1,0.1,0.1,0.1c0,0.1,0,0.2-0.1,0.3c-0.1,0.1-0.2,0.2-0.3,0.2c0,0-0.1,0-0.2,0.1s-0.2,0.1-0.3,0.1
		c-0.1,0-0.2,0.1-0.3,0.1c-0.1,0-0.2,0.1-0.2,0.1c-0.3,0.1-0.5,0.2-0.7,0.3c-0.2,0.1-0.3,0.1-0.5,0.2c-0.1,0-0.2,0.1-0.3,0.1
		s-0.1,0-0.2,0.1c-0.1,0-0.1,0-0.2,0s-0.2,0-0.3,0.1c0,0.1-0.1,0.2-0.1,0.3c0,0.1-0.1,0.3-0.1,0.4c0,0.1-0.1,0.3-0.1,0.4
		c0,0.1,0,0.2,0,0.2c0,0.1,0,0.1,0,0.1s0,0,0.1,0.1c0,0,0,0,0.1,0c0,0,0,0,0.1,0c0.1,0,0.3,0,0.5-0.1c0.2,0,0.4-0.1,0.6-0.2
		c0.2-0.1,0.4-0.1,0.5-0.2c0.1-0.1,0.3-0.2,0.4-0.2c0.1-0.1,0.3-0.1,0.4-0.2c0.1,0,0.3-0.1,0.4-0.1c0,0,0.1,0,0.1,0c0,0,0.1,0,0.1,0
		c0,0,0.1,0,0.1,0.1s0,0.1,0,0.1c0,0.1-0.1,0.2-0.1,0.3c-0.1,0.1-0.2,0.2-0.3,0.2c-0.1,0.1-0.2,0.2-0.4,0.2
		c-0.1,0.1-0.3,0.1-0.4,0.2c-0.2,0.1-0.3,0.1-0.4,0.2c-0.1,0.1-0.3,0.1-0.4,0.1c-0.3,0.1-0.6,0.2-0.8,0.2c-0.3,0-0.5,0.1-0.7,0.1
		c-0.2,0-0.4,0-0.5-0.1C814.1,431.4,814,431.3,814,431.1z"/>
	<path style="fill:#FFFFFF;stroke:#ED1C24;stroke-miterlimit:10;" d="M819.4,431c0.1-0.2,0.1-0.5,0.2-0.8c0.1-0.3,0.2-0.6,0.4-0.9
		s0.3-0.6,0.5-0.9c0.2-0.3,0.3-0.6,0.5-0.9c0.2-0.3,0.4-0.6,0.5-0.9c0.2-0.3,0.4-0.5,0.5-0.7c0.1-0.1,0.1-0.1,0.2-0.2
		c0.1-0.1,0.2-0.2,0.3-0.3c0.1-0.1,0.2-0.2,0.3-0.3c0.1-0.1,0.2-0.2,0.3-0.2c0.1-0.1,0.2-0.1,0.3-0.2c0.1,0,0.2-0.1,0.3-0.1
		c0.1,0,0.2,0,0.3,0.1c0.1,0,0.2,0.1,0.2,0.2c0.1,0.1,0.1,0.2,0.2,0.3c0,0.1,0.1,0.2,0.1,0.3c0,0.1,0,0.1,0,0.2s0,0.1,0,0.2
		l-0.5,2.6c0-0.1,0.1-0.2,0.2-0.3s0.2-0.3,0.3-0.4c0.1-0.1,0.2-0.3,0.3-0.5c0.1-0.2,0.2-0.3,0.3-0.5c0.1-0.2,0.2-0.3,0.3-0.4
		c0.1-0.1,0.2-0.2,0.2-0.3l0.1-0.1c0.1-0.1,0.1-0.2,0.2-0.2c0.1-0.1,0.2-0.2,0.3-0.3c0.1-0.1,0.2-0.2,0.3-0.3
		c0.1-0.1,0.2-0.2,0.3-0.3s0.2-0.1,0.3-0.2c0.1,0,0.2-0.1,0.3-0.1c0.1,0,0.1,0,0.2,0.1c0,0,0.1,0.1,0.1,0.1s0.1,0.1,0.1,0.2
		c0,0.1,0,0.2,0,0.2c0,0.1,0,0.3,0,0.4s0,0.3-0.1,0.4c0,0.1,0,0.2-0.1,0.4c0,0.2-0.1,0.3-0.1,0.5c0,0.2-0.1,0.4-0.1,0.7
		c0,0.2-0.1,0.5-0.1,0.7c0,0.2-0.1,0.5-0.1,0.7c0,0.2-0.1,0.5-0.1,0.7s-0.1,0.4-0.1,0.6c0,0.2-0.1,0.3-0.1,0.4c0,0,0,0.1,0,0.2
		c0,0.1,0,0.1-0.1,0.2c0,0.1-0.1,0.1-0.2,0.2c-0.1,0.1-0.1,0.1-0.2,0.1c0,0-0.1,0-0.1,0c0,0-0.1-0.1-0.1-0.1s-0.1-0.1-0.1-0.2
		s0-0.1,0-0.2l1-4.5c0,0,0-0.1,0-0.1c0,0,0-0.1,0-0.1c0,0,0-0.1,0-0.1c0,0,0-0.1,0-0.1c0,0,0-0.1,0-0.1c-0.1,0.1-0.3,0.2-0.4,0.4
		c-0.2,0.2-0.3,0.3-0.5,0.5s-0.3,0.4-0.5,0.6c-0.2,0.2-0.3,0.4-0.5,0.7c-0.1,0.2-0.2,0.4-0.4,0.6s-0.3,0.4-0.4,0.6
		c-0.1,0.2-0.3,0.4-0.4,0.6s-0.2,0.4-0.3,0.6c0,0.1-0.1,0.2-0.2,0.3c-0.1,0.1-0.1,0.3-0.2,0.4c-0.1,0.1-0.1,0.2-0.2,0.3
		c-0.1,0.1-0.2,0.1-0.2,0.1c-0.1,0-0.1,0-0.2,0c0,0-0.1,0-0.1-0.1c0,0,0-0.1-0.1-0.1c0,0,0-0.1,0-0.2c0-0.1,0-0.1,0-0.2s0-0.1,0-0.2
		c0.1-0.3,0.1-0.5,0.2-0.8c0.1-0.3,0.1-0.5,0.2-0.8c0.1-0.3,0.2-0.6,0.2-0.9c0.1-0.3,0.2-0.6,0.2-1c0-0.1,0-0.2,0.1-0.3
		c0-0.1,0.1-0.2,0.1-0.4c0-0.1,0-0.2,0.1-0.4c0-0.1,0-0.2,0-0.3c0-0.1,0-0.1,0-0.2c0,0,0-0.1-0.1-0.1c-0.1,0-0.2,0-0.4,0.1
		c-0.1,0.1-0.3,0.2-0.4,0.3c-0.1,0.1-0.3,0.3-0.4,0.5c-0.1,0.2-0.2,0.4-0.4,0.5c-0.1,0.2-0.2,0.4-0.3,0.6s-0.2,0.3-0.3,0.5
		c0,0,0,0.1-0.1,0.1c0,0.1-0.1,0.1-0.1,0.2c0,0.1-0.1,0.2-0.2,0.4c-0.1,0.2-0.2,0.3-0.2,0.6c-0.1,0.2-0.2,0.5-0.3,0.8
		c-0.1,0.3-0.3,0.7-0.4,1.1c0,0.1-0.1,0.1-0.1,0.2c-0.1,0-0.1,0.1-0.2,0.1c-0.2,0-0.3,0-0.4-0.1c-0.1-0.1-0.1-0.2-0.1-0.3
		C819.4,431.2,819.4,431.1,819.4,431z"/>
	<path style="fill:#FFFFFF;stroke:#ED1C24;stroke-miterlimit:10;" d="M829,428.8c0-0.1,0.1-0.3,0.1-0.4c0-0.1,0.1-0.3,0.1-0.5
		s0.1-0.3,0.1-0.5c0-0.2,0.1-0.3,0.1-0.5c0-0.1,0.1-0.3,0.1-0.4c0-0.1,0.1-0.2,0.1-0.3c0.1-0.2,0.1-0.4,0.2-0.6
		c0.1-0.2,0.1-0.4,0.2-0.6c0.1-0.1,0.1-0.2,0.2-0.3s0.2-0.1,0.3-0.1c0.1,0.1,0.2,0.1,0.2,0.2c0.1,0.1,0.1,0.2,0.1,0.3
		c0,0.1,0,0.2,0,0.3c0,0.1-0.1,0.2-0.1,0.3c0,0.1-0.1,0.2-0.1,0.4c0,0.1-0.1,0.3-0.1,0.4c-0.1,0.3-0.2,0.5-0.3,0.8
		c-0.1,0.3-0.2,0.5-0.3,0.8c0,0.1,0,0.1-0.1,0.2c0,0.1,0,0.2-0.1,0.2c0,0.1-0.1,0.2-0.1,0.3c0,0.1-0.1,0.2-0.1,0.4
		c0,0.2-0.1,0.3-0.1,0.5s-0.1,0.3-0.1,0.5c0,0.2-0.1,0.3-0.1,0.5s-0.1,0.3-0.1,0.5c0,0.1,0,0.1-0.1,0.2c0,0-0.1,0.1-0.1,0.1
		c0,0-0.1,0.1-0.2,0.1s-0.1,0-0.2,0s-0.1,0-0.1,0c0,0-0.1,0-0.1-0.1c0,0-0.1-0.1-0.1-0.1s0-0.1,0-0.2c0,0,0,0,0,0c0,0,0,0,0,0
		L829,428.8z"/>
	<path style="fill:#FFFFFF;stroke:#ED1C24;stroke-miterlimit:10;" d="M832.6,425.9c0-0.1,0-0.2,0.1-0.3c0-0.1,0.1-0.2,0.1-0.2
		c0-0.1,0.1-0.1,0.2-0.2c0.1-0.1,0.2-0.1,0.3-0.1c0.1,0,0.2,0,0.3,0.1c0.1,0.1,0.2,0.1,0.2,0.2c0.1,0.1,0.2,0.2,0.2,0.3
		c0.1,0.2,0.2,0.4,0.2,0.6s0.2,0.5,0.3,0.8c0.1,0.3,0.2,0.6,0.3,0.9s0.2,0.7,0.4,1s0.3,0.7,0.5,1c0,0,0.1,0.1,0.1,0.2
		c0,0.1,0.1,0.1,0.1,0.2c0,0.1,0.1,0.1,0.1,0.1s0.1,0.1,0.1,0.1c0,0,0,0,0-0.1s0-0.1,0-0.2c0-0.1,0-0.1,0-0.2c0-0.1,0-0.1,0-0.2
		c0.1-0.1,0.1-0.3,0.2-0.5c0.1-0.2,0.1-0.4,0.2-0.7c0.1-0.3,0.2-0.6,0.3-0.9c0.1-0.4,0.2-0.8,0.3-1.3c0-0.1,0.1-0.3,0.1-0.4
		s0.1-0.3,0.1-0.5c0-0.2,0.1-0.3,0.1-0.5c0-0.2,0-0.3,0.1-0.4c0,0,0-0.1,0-0.1c0,0,0-0.1,0-0.2c0-0.1,0-0.1,0-0.2c0-0.1,0-0.1,0-0.2
		c0-0.1,0-0.1,0.1-0.1s0.1-0.1,0.1-0.1s0.1,0,0.2,0c0.1,0,0.1,0,0.2,0.1c0.1,0.1,0.1,0.2,0.2,0.3c0,0.1,0.1,0.3,0.1,0.5
		c0,0.1,0,0.3,0,0.4c0,0.2-0.1,0.3-0.1,0.5c0,0.2-0.1,0.4-0.1,0.6c0,0.2-0.1,0.4-0.1,0.6s-0.1,0.4-0.1,0.5c0,0.2-0.1,0.3-0.1,0.4
		c-0.1,0.2-0.1,0.4-0.2,0.6c-0.1,0.2-0.1,0.4-0.2,0.6c-0.1,0.2-0.2,0.4-0.2,0.7c-0.1,0.2-0.2,0.5-0.3,0.7c0,0.1-0.1,0.2-0.2,0.4
		c-0.1,0.1-0.1,0.2-0.2,0.3s-0.2,0.2-0.3,0.2c-0.1,0.1-0.2,0.1-0.3,0.1c-0.1,0-0.1,0-0.2,0c-0.1,0-0.1-0.1-0.2-0.1
		c-0.3-0.3-0.5-0.6-0.7-1c-0.2-0.4-0.4-0.8-0.5-1.2c-0.2-0.4-0.3-0.8-0.4-1.2c-0.1-0.4-0.2-0.8-0.3-1.2l0-0.1c0,0,0-0.1,0-0.1
		c0,0,0-0.1,0-0.1s0-0.1,0-0.1c0,0,0,0,0,0c0,0,0,0-0.1,0.1c0,0.1-0.1,0.1-0.1,0.2s-0.1,0.2-0.1,0.2c0,0.1,0,0.1,0,0.2
		c0,0.1-0.1,0.2-0.1,0.3c0,0.1-0.1,0.3-0.1,0.5c-0.1,0.2-0.1,0.4-0.2,0.6c-0.1,0.2-0.1,0.4-0.2,0.6c-0.1,0.2-0.1,0.4-0.2,0.5
		c-0.1,0.2-0.1,0.3-0.1,0.4c0,0.1-0.1,0.2-0.1,0.3c0,0.1-0.1,0.3-0.1,0.4c0,0.1-0.1,0.2-0.1,0.3c0,0.1-0.1,0.2-0.1,0.2
		c0,0.1-0.1,0.2-0.2,0.3s-0.1,0.1-0.2,0.1c0,0-0.1,0-0.1,0c0,0-0.1-0.1-0.1-0.1c0,0-0.1-0.1-0.1-0.2c0-0.1,0-0.1,0-0.1
		c0,0,0-0.1,0-0.1c0-0.1,0-0.1,0.1-0.3l0.1-0.5L832.6,425.9z"/>
	<path style="fill:#FFFFFF;stroke:#ED1C24;stroke-miterlimit:10;" d="M842.7,431.5c-0.1,0-0.1,0-0.2,0c0,0-0.1-0.1-0.1-0.1
		c0,0-0.1-0.1-0.1-0.1c0-0.1,0-0.1,0-0.2c0,0,0-0.1,0-0.2c0-0.1,0.1-0.2,0.1-0.3c0-0.1,0.1-0.2,0.1-0.3c0-0.1,0.1-0.2,0.1-0.3
		c0-0.1,0.1-0.2,0.1-0.3s0.1-0.2,0.1-0.2c0-0.1,0-0.1,0-0.2c0-0.1,0-0.2,0.1-0.3c0-0.1,0-0.2,0.1-0.3c0-0.1,0-0.2,0.1-0.3
		c0,0-0.1,0-0.2,0c-0.1,0-0.1,0-0.2,0c-0.1,0-0.2,0-0.3,0c-0.1,0-0.2,0-0.3,0.1s-0.2,0-0.3,0.1c-0.1,0-0.2,0.1-0.4,0.1
		c-0.2,0-0.4,0.1-0.6,0.1c-0.2,0-0.4,0.1-0.6,0.1c-0.1,0-0.1,0-0.2,0c-0.1,0-0.1-0.1-0.2-0.1c-0.1,0.1-0.1,0.2-0.2,0.3
		c-0.1,0.1-0.1,0.2-0.2,0.3c0,0.1-0.1,0.2-0.1,0.3c0,0.1-0.1,0.2-0.1,0.3c0,0.1,0,0.1,0,0.2c0,0.1,0,0.2,0,0.3c0,0.1,0,0.2,0,0.3
		c0,0.1,0,0.1,0,0.2c0,0,0,0.1-0.1,0.1c0,0-0.1,0.1-0.1,0.1c0,0-0.1,0.1-0.1,0.1s-0.1,0-0.1,0c-0.1,0-0.2,0-0.2-0.1
		s-0.1-0.1-0.1-0.2c0-0.1-0.1-0.2-0.1-0.2c0-0.1,0-0.2,0-0.2c0-0.2,0-0.4,0.1-0.6c0-0.2,0.1-0.4,0.2-0.6s0.2-0.4,0.3-0.6
		c0.1-0.2,0.2-0.4,0.3-0.6c0.1-0.2,0.2-0.4,0.4-0.6c0.2-0.2,0.3-0.5,0.5-0.8c0.2-0.3,0.4-0.5,0.6-0.8c0.2-0.2,0.4-0.5,0.7-0.7
		c0.2-0.2,0.5-0.4,0.7-0.5c0.2-0.1,0.5-0.2,0.7-0.2c0.3,0,0.5,0,0.6,0.1c0.2,0.1,0.3,0.2,0.4,0.4s0.2,0.3,0.2,0.5
		c0,0.2,0.1,0.4,0.1,0.7c0,0.2,0,0.4,0,0.6c0,0.2-0.1,0.4-0.1,0.6c0,0.2-0.1,0.4-0.1,0.6s-0.1,0.4-0.1,0.5l-0.2,0.6c0,0,0,0.1,0,0.1
		c0,0.1,0,0.1-0.1,0.2c0,0.1-0.1,0.2-0.1,0.3s-0.1,0.2-0.1,0.3c0,0.1-0.1,0.2-0.1,0.2c0,0.1-0.1,0.1-0.1,0.2l0,0
		c0,0.1,0,0.2-0.1,0.2c0,0.1-0.1,0.2-0.1,0.2c0,0.1-0.1,0.1-0.2,0.2C842.9,431.5,842.8,431.5,842.7,431.5z M842.9,425.7
		c-0.1,0-0.3,0-0.4,0.1c-0.1,0.1-0.3,0.1-0.4,0.2c-0.1,0.1-0.3,0.2-0.4,0.3c-0.1,0.1-0.2,0.2-0.4,0.4c-0.1,0.1-0.2,0.3-0.3,0.4
		c-0.1,0.1-0.2,0.3-0.3,0.4c0,0,0,0,0,0.1s0,0.1-0.1,0.1c0,0,0,0.1-0.1,0.1s0,0.1,0,0.1h0.5c0.2,0,0.4,0,0.6,0
		c0.2,0,0.4-0.1,0.7-0.1s0.4-0.1,0.6-0.1c0.2,0,0.3-0.1,0.4-0.1c0,0,0-0.1,0-0.2c0-0.1,0-0.1,0-0.2c0-0.1,0-0.2,0-0.3
		c0-0.1,0-0.2,0-0.3c0-0.1,0-0.2,0-0.3c0-0.1,0-0.2-0.1-0.3c0-0.1-0.1-0.2-0.1-0.2C843.1,425.8,843,425.7,842.9,425.7z"/>
	<path style="fill:#FFFFFF;stroke:#ED1C24;stroke-miterlimit:10;" d="M845.3,430.9c0.2-0.7,0.4-1.4,0.5-2.1c0.2-0.7,0.4-1.4,0.5-2.1
		c0-0.1,0-0.2,0.1-0.3c0-0.1,0-0.2,0.1-0.2c0-0.1,0-0.2,0-0.3c0-0.1,0-0.2,0-0.3c0-0.1,0-0.1,0-0.2c0-0.1,0-0.1,0-0.2
		c0-0.1,0-0.1,0-0.2c0-0.2,0.1-0.3,0.2-0.4s0.2-0.1,0.4-0.1c0.1,0,0.1,0,0.2,0s0.1,0,0.2,0c0.1,0,0.1,0,0.2,0.1c0.1,0,0.2,0,0.2,0
		c0.1,0,0.1,0,0.2,0s0.1,0,0.2,0s0.2,0,0.3,0c0.1,0,0.2,0,0.4,0c0.1,0,0.2,0,0.3,0c0.1,0,0.2,0,0.4,0c0.1,0,0.3,0.1,0.4,0.1
		s0.2,0.1,0.4,0.2c0.1,0.1,0.2,0.2,0.3,0.3c0.1,0.1,0.2,0.2,0.2,0.4c0,0.1,0,0.1,0,0.2c0,0.1,0,0.1,0,0.2c0,0.2,0,0.4-0.1,0.6
		c-0.1,0.2-0.3,0.4-0.4,0.6s-0.4,0.3-0.6,0.5c-0.1,0.1-0.2,0.1-0.3,0.2c-0.1,0.1-0.3,0.1-0.4,0.2s-0.2,0.1-0.3,0.2
		c-0.1,0.1-0.2,0.1-0.2,0.1c0.1,0.1,0.2,0.1,0.3,0.2s0.2,0.1,0.3,0.2c0.1,0.1,0.2,0.2,0.3,0.3s0.2,0.3,0.4,0.4
		c0.1,0.2,0.3,0.4,0.4,0.6c0.1,0.2,0.3,0.5,0.4,0.8c0,0.1,0.1,0.2,0.1,0.2c0,0.1,0,0.1,0,0.2c0,0.1-0.1,0.1-0.1,0.2
		c0,0.1-0.1,0.1-0.2,0.1c-0.1,0-0.1,0-0.2,0c-0.1,0-0.2,0-0.3-0.1c-0.1-0.1-0.1-0.2-0.2-0.3s-0.1-0.3-0.2-0.4
		c-0.1-0.2-0.2-0.3-0.3-0.5c-0.1-0.2-0.2-0.3-0.4-0.5c-0.1-0.2-0.3-0.3-0.4-0.4c-0.2-0.1-0.3-0.2-0.5-0.3c-0.2-0.1-0.3-0.1-0.5-0.1
		h-0.1c-0.1,0-0.2,0-0.3,0c-0.1,0-0.1,0-0.2,0c-0.1,0-0.2-0.1-0.2-0.2c0-0.1-0.1-0.2-0.1-0.3v-0.1l-0.4,1.4c0,0,0,0.1-0.1,0.2
		c0,0.1,0,0.2-0.1,0.3c0,0.1-0.1,0.2-0.1,0.3c0,0.1-0.1,0.2-0.1,0.3c0,0.1,0,0.2-0.1,0.2c0,0.1,0,0.1,0,0.2c0,0.1-0.1,0.1-0.2,0.2
		c-0.1,0-0.1,0.1-0.2,0.1c-0.1,0-0.2,0-0.3-0.1c-0.1-0.1-0.1-0.2-0.1-0.3c0,0,0-0.1,0-0.1C845.2,430.9,845.3,430.9,845.3,430.9z
		 M847.5,425.7c0,0.1,0,0.2-0.1,0.3c0,0.1-0.1,0.2-0.1,0.4c0,0.1-0.1,0.3-0.1,0.5c0,0.2-0.1,0.3-0.1,0.5s-0.1,0.3-0.1,0.5
		s-0.1,0.3-0.1,0.4c0.1-0.1,0.2-0.2,0.3-0.2c0.1-0.1,0.3-0.1,0.4-0.2c0.1,0,0.3-0.1,0.4-0.2c0.2-0.1,0.4-0.2,0.5-0.3
		c0.2-0.1,0.4-0.2,0.6-0.3c0.2-0.1,0.4-0.2,0.5-0.4c0.2-0.1,0.3-0.2,0.4-0.4c0.1-0.1,0.1-0.2,0.1-0.4c0-0.1,0-0.2-0.1-0.3
		c-0.1-0.1-0.2-0.1-0.3-0.1c-0.1,0-0.3-0.1-0.4-0.1c-0.1,0-0.3,0-0.4,0c-0.2,0-0.4,0-0.7,0C848,425.5,847.7,425.6,847.5,425.7z"/>
</g>
<g>
	<path style="fill:#FFFFFF;stroke:#E6E6E6;stroke-miterlimit:10;" d="M72.6,438.8c0.1,0,0.2,0.1,0.3,0.1c0.1,0,0.2,0.1,0.3,0.1
		c0.1,0,0.2,0.1,0.3,0.1s0.2,0,0.4,0c0.2,0,0.3,0,0.5-0.1c0.2,0,0.3-0.1,0.5-0.2s0.3-0.2,0.4-0.3c0.1-0.1,0.3-0.2,0.4-0.4
		c0.1-0.1,0.2-0.3,0.3-0.4c0.1-0.1,0.2-0.2,0.2-0.3c0.1-0.1,0.1-0.2,0.1-0.2c0-0.1,0-0.1,0-0.2c0-0.1,0-0.1-0.1-0.2
		c0-0.1-0.1-0.1-0.2-0.1c-0.1,0-0.2-0.1-0.3-0.1c-0.1,0-0.2,0-0.3,0c-0.1,0-0.1,0-0.2,0c-0.1,0-0.2,0-0.3,0c-0.1,0-0.2,0-0.3,0
		c-0.1,0-0.2,0-0.2,0c-0.1,0-0.2,0-0.3,0s-0.2-0.1-0.3-0.1c-0.1,0-0.2-0.1-0.3-0.2c-0.1-0.1-0.2-0.2-0.2-0.3c0,0,0-0.1,0-0.1
		c0-0.1,0-0.1,0-0.2c0-0.1,0-0.1,0-0.2c0-0.1,0-0.1,0-0.2c0-0.1,0.1-0.3,0.2-0.4c0.1-0.1,0.2-0.3,0.3-0.4c0.1-0.1,0.3-0.3,0.4-0.4
		c0.2-0.1,0.3-0.3,0.5-0.4c0.2-0.1,0.3-0.2,0.5-0.3c0.2-0.1,0.3-0.2,0.4-0.2c0.2-0.1,0.4-0.2,0.6-0.2c0.2,0,0.4-0.1,0.6-0.1
		c0.1,0,0.2,0,0.3,0c0.1,0,0.2,0.1,0.3,0.1c0.1,0.1,0.1,0.1,0.2,0.2c0,0.1,0.1,0.2,0.1,0.3c0,0.1,0,0.1,0,0.2c0,0,0,0.1-0.1,0.1
		c0,0,0,0-0.1,0.1c0,0-0.1,0-0.1,0c-0.1,0-0.1,0-0.2,0c-0.1,0-0.1,0-0.2-0.1c-0.1,0-0.1,0-0.2-0.1c-0.1,0-0.1,0-0.2,0
		c-0.2,0-0.4,0-0.6,0.1c-0.2,0.1-0.4,0.2-0.6,0.3c-0.2,0.1-0.4,0.3-0.6,0.4c-0.2,0.2-0.3,0.3-0.5,0.5c-0.1,0.1-0.1,0.2-0.2,0.2
		c0,0.1-0.1,0.2-0.1,0.2c0,0.1,0,0.2,0.1,0.2c0.1,0.1,0.2,0.1,0.3,0.1c0.1,0,0.2,0,0.3,0s0.2,0,0.3,0c0.1,0,0.2,0,0.3,0
		c0.1,0,0.2,0,0.3,0c0.2,0,0.3,0,0.5,0.1c0.2,0,0.3,0.1,0.4,0.2c0.1,0.1,0.2,0.2,0.3,0.4c0.1,0.1,0.1,0.3,0.1,0.5
		c0,0.1,0,0.2-0.1,0.3c0,0.1-0.1,0.2-0.1,0.4c-0.1,0.1-0.1,0.2-0.2,0.3s-0.2,0.2-0.2,0.3c-0.2,0.2-0.3,0.4-0.5,0.6
		c-0.2,0.2-0.4,0.3-0.6,0.5c-0.2,0.1-0.4,0.2-0.7,0.3c-0.2,0.1-0.5,0.1-0.7,0.1c-0.1,0-0.2,0-0.3,0c-0.1,0-0.2,0-0.3-0.1
		c-0.1,0-0.2-0.1-0.3-0.1c-0.1-0.1-0.2-0.1-0.3-0.2c-0.1-0.1-0.1-0.2-0.2-0.2s-0.1-0.2-0.1-0.3c0-0.1,0-0.1,0-0.1
		C72.5,438.8,72.5,438.8,72.6,438.8z"/>
	<path style="fill:#FFFFFF;stroke:#E6E6E6;stroke-miterlimit:10;" d="M79.8,439.1c0.1-0.5,0.2-1,0.4-1.4c0.1-0.5,0.3-1,0.4-1.4
		c0.1-0.2,0.1-0.4,0.1-0.5c0-0.2,0.1-0.3,0.1-0.4c0-0.1,0-0.3,0.1-0.4c0-0.1,0-0.2,0-0.3c0,0,0,0,0-0.1s0,0,0-0.1c0,0-0.1,0-0.2,0
		s-0.2,0.1-0.3,0.1c-0.1,0.1-0.3,0.1-0.4,0.2c-0.1,0.1-0.3,0.1-0.4,0.2c-0.1,0.1-0.2,0.1-0.3,0.1c-0.1,0-0.1,0.1-0.2,0.1
		c0,0-0.1,0-0.1,0c0,0-0.1,0-0.1,0c-0.1,0-0.2,0-0.2-0.1c-0.1-0.1-0.1-0.2-0.1-0.3c0-0.1,0-0.1,0-0.2c0,0,0-0.1,0.1-0.1
		c0,0,0.1-0.1,0.1-0.1c0,0,0.1-0.1,0.2-0.1c0.7-0.4,1.5-0.7,2.2-0.8c0.7-0.2,1.5-0.3,2.2-0.3c0.1,0,0.1,0,0.2,0c0.1,0,0.2,0,0.3,0
		c0.1,0,0.2,0,0.3,0c0.1,0,0.2,0,0.2,0c0.1,0,0.1,0.1,0.2,0.1c0,0.1,0.1,0.1,0.1,0.2c0,0.1,0,0.1,0,0.2c0,0.1,0,0.1-0.1,0.1
		c0,0-0.1,0.1-0.1,0.1c0,0-0.1,0-0.2,0c-0.1,0-0.2,0-0.4,0c-0.1,0-0.3,0-0.4,0c-0.3,0-0.5,0-0.8,0c-0.3,0-0.5,0.1-0.8,0.1
		c0,0,0,0,0,0c0,0,0,0.1,0,0.1c0,0.2,0,0.3,0,0.4c0,0.1,0,0.2-0.1,0.4c0,0.1-0.1,0.2-0.1,0.4c0,0.1-0.1,0.3-0.1,0.5
		c-0.1,0.2-0.1,0.4-0.2,0.7c-0.1,0.3-0.2,0.6-0.2,1l-0.2,0.8c0,0.2-0.1,0.4-0.1,0.5c0,0.2-0.1,0.3-0.1,0.5c0,0-0.1,0.1-0.1,0.1
		c-0.1,0-0.2,0.1-0.3,0.1c-0.1,0-0.1,0-0.2,0c0,0-0.1-0.1-0.1-0.1c0-0.1-0.1-0.1-0.1-0.2C79.8,439.2,79.8,439.2,79.8,439.1z"/>
	<path style="fill:#FFFFFF;stroke:#E6E6E6;stroke-miterlimit:10;" d="M84,437.7c0.1-0.3,0.1-0.5,0.2-0.8c0.1-0.2,0.1-0.4,0.2-0.6
		c0.1-0.2,0.1-0.4,0.2-0.6c0.1-0.2,0.1-0.4,0.2-0.6l0.1-0.2c0-0.1,0-0.1,0-0.2c0-0.1,0-0.2,0-0.2c0-0.1,0-0.2,0-0.3
		c0-0.1,0-0.2,0.1-0.2c0-0.1,0.1-0.1,0.1-0.2c0.1,0,0.1-0.1,0.2-0.1c0.1,0,0.2,0,0.2,0c0.1,0,0.1,0.1,0.1,0.1c0,0.1,0.1,0.1,0.1,0.2
		c0,0.1,0,0.1,0,0.2c0,0.1,0,0.1,0,0.2c0,0.1,0,0.1,0,0.2c0,0.1-0.1,0.3-0.2,0.5c-0.1,0.2-0.1,0.4-0.2,0.6c-0.1,0.2-0.2,0.4-0.3,0.7
		c-0.1,0.2-0.2,0.5-0.2,0.8c0,0.1-0.1,0.3-0.1,0.5c0,0.2,0,0.3,0,0.5c0,0.1,0,0.2,0,0.3s0.1,0.2,0.1,0.3c0.1,0.1,0.1,0.1,0.2,0.2
		c0.1,0,0.2,0.1,0.3,0.1c0.1,0,0.2,0,0.3,0s0.2-0.1,0.4-0.1c0.2-0.1,0.4-0.2,0.6-0.4c0.2-0.2,0.4-0.3,0.6-0.5
		c0.2-0.2,0.3-0.4,0.5-0.7c0.1-0.2,0.3-0.5,0.4-0.7c0.1-0.3,0.2-0.5,0.3-0.8c0.1-0.3,0.2-0.5,0.2-0.8c0-0.1,0-0.2,0.1-0.3
		c0-0.1,0-0.2,0-0.3c0-0.1,0-0.2,0-0.3c0-0.1,0-0.2,0-0.4c0-0.1,0-0.2,0.1-0.3c0.1-0.1,0.1-0.1,0.3-0.1c0.1,0,0.1,0,0.2,0.1
		c0.1,0.1,0.1,0.1,0.1,0.2s0.1,0.2,0.1,0.3c0,0.1,0,0.2,0,0.3c0,0.1,0,0.3,0,0.5c0,0.2-0.1,0.3-0.1,0.5c-0.1,0.3-0.2,0.7-0.3,1
		c-0.1,0.3-0.3,0.7-0.4,1c-0.2,0.3-0.3,0.6-0.6,0.9c-0.2,0.3-0.5,0.6-0.7,0.8c-0.1,0.1-0.3,0.3-0.4,0.4s-0.3,0.2-0.5,0.3
		c-0.2,0.1-0.4,0.2-0.5,0.2c-0.2,0.1-0.4,0.1-0.5,0.1c-0.3,0-0.5,0-0.7-0.1c-0.2-0.1-0.4-0.2-0.5-0.3c-0.1-0.1-0.2-0.3-0.3-0.5
		c-0.1-0.2-0.1-0.4-0.1-0.6c0-0.1,0-0.2,0-0.3C84,438,84,437.9,84,437.7z"/>
	<path style="fill:#FFFFFF;stroke:#E6E6E6;stroke-miterlimit:10;" d="M89.5,439.2c0.1-0.1,0.3-0.2,0.4-0.2c0.1,0,0.3,0,0.4-0.1
		l1.1-4.3c0,0,0,0-0.1,0c-0.1,0-0.1,0-0.2,0c-0.1,0-0.1,0-0.2,0c-0.1,0-0.1,0-0.1-0.1c0,0,0,0-0.1-0.1c0,0,0-0.1-0.1-0.1
		c0,0,0-0.1-0.1-0.1c0,0,0-0.1,0-0.1c0-0.1,0-0.1,0.1-0.2s0.1-0.1,0.2-0.1c0.1,0,0.2,0,0.3-0.1c0.1,0,0.2,0,0.3,0c0.4,0,0.7,0,1,0
		c0.3,0,0.6,0.1,0.9,0.1c0.3,0.1,0.5,0.2,0.8,0.3c0.2,0.1,0.5,0.3,0.7,0.5c0.1,0.1,0.2,0.2,0.2,0.3c0.1,0.1,0.1,0.2,0.2,0.3
		c0.1,0.1,0.1,0.3,0.1,0.4c0,0.1,0.1,0.3,0.1,0.4c0,0.1,0,0.2,0,0.3s0,0.2,0,0.2c-0.1,0.3-0.2,0.6-0.3,0.9c-0.2,0.3-0.3,0.5-0.5,0.7
		c-0.2,0.2-0.4,0.4-0.7,0.5c-0.2,0.1-0.5,0.3-0.7,0.4c-0.3,0.1-0.5,0.2-0.8,0.3c-0.3,0.1-0.5,0.2-0.8,0.2h0c-0.1,0-0.2,0.1-0.4,0.1
		c-0.1,0-0.3,0-0.4,0.1c-0.1,0-0.3,0-0.4,0c-0.1,0-0.3,0-0.4,0c-0.1,0-0.2,0-0.3,0c-0.1,0-0.2,0-0.2-0.1c-0.1,0-0.1-0.1-0.1-0.1
		c0,0,0-0.1,0-0.1c0-0.1,0-0.1,0-0.2C89.3,439.3,89.4,439.2,89.5,439.2z M91.3,437.9c0,0.1-0.1,0.3-0.1,0.4c0,0.2-0.1,0.3-0.1,0.5
		l0.1,0c0.1,0,0.1,0,0.3-0.1c0.1,0,0.2-0.1,0.4-0.1c0.1,0,0.3-0.1,0.4-0.2c0.2-0.1,0.3-0.1,0.5-0.2c0.2-0.1,0.3-0.2,0.5-0.3
		c0.2-0.1,0.3-0.2,0.5-0.3c0.2-0.1,0.3-0.3,0.4-0.4c0.1-0.1,0.2-0.3,0.3-0.5c0.1-0.2,0.1-0.3,0.1-0.5c0-0.2,0-0.3-0.1-0.5
		s-0.2-0.3-0.3-0.4c-0.1-0.1-0.2-0.3-0.4-0.4c-0.2-0.1-0.3-0.2-0.5-0.3c-0.2-0.1-0.3-0.1-0.5-0.2c-0.2,0-0.3-0.1-0.5-0.1
		c-0.2,0.6-0.4,1.1-0.5,1.7C91.6,436.8,91.5,437.3,91.3,437.9z"/>
	<path style="fill:#FFFFFF;stroke:#E6E6E6;stroke-miterlimit:10;" d="M96.1,440.5c0-0.1,0-0.1,0.1-0.2c0-0.1,0.1-0.1,0.1-0.2
		c0.1-0.1,0.1-0.2,0.2-0.2c0.1-0.1,0.2-0.2,0.3-0.3c0.2-0.2,0.3-0.3,0.5-0.5c0.2-0.2,0.4-0.4,0.5-0.6c0.1-0.1,0.1-0.2,0.2-0.2
		c0-0.1,0.1-0.1,0.1-0.1c0,0,0-0.1,0-0.1c0,0,0-0.1,0-0.1c-0.1-0.2-0.2-0.3-0.3-0.5c-0.1-0.2-0.2-0.4-0.2-0.6
		c-0.1-0.2-0.1-0.4-0.2-0.6c-0.1-0.2-0.1-0.4-0.2-0.6c0-0.2-0.1-0.3-0.1-0.5c0-0.2-0.1-0.3-0.2-0.5c-0.1-0.1-0.1-0.2-0.1-0.3
		c0-0.1-0.1-0.2-0.1-0.3c0-0.1,0-0.1,0-0.2c0-0.1,0-0.1,0.1-0.2s0.1-0.1,0.1-0.2c0.1,0,0.1-0.1,0.2-0.1c0.1,0,0.2,0,0.2,0.1
		c0.1,0.1,0.1,0.1,0.2,0.2c0.1,0.1,0.1,0.2,0.1,0.3c0,0.1,0.1,0.2,0.1,0.3c0,0.1,0.1,0.3,0.1,0.5c0,0.2,0.1,0.4,0.1,0.6
		c0,0.2,0.1,0.4,0.1,0.5c0,0.2,0.1,0.3,0.1,0.4c0,0.1,0.1,0.2,0.1,0.4c0,0.1,0.1,0.2,0.1,0.3c0,0.1,0.1,0.1,0.1,0.2
		c0,0,0.1,0.1,0.1,0.1c0,0,0.1,0,0.1-0.1c0.2-0.3,0.5-0.6,0.7-1c0.3-0.4,0.5-0.7,0.7-1.1c0.1-0.1,0.2-0.2,0.2-0.4
		c0.1-0.1,0.1-0.2,0.2-0.3c0.1-0.1,0.1-0.2,0.2-0.3c0-0.1,0.1-0.2,0.1-0.3l0.1-0.4c0,0,0-0.1,0.1-0.1c0,0,0.1-0.1,0.1-0.1
		c0,0,0.1-0.1,0.1-0.1c0,0,0.1,0,0.2,0c0.1,0,0.1,0,0.2,0c0.1,0,0.1,0.1,0.1,0.1c0,0,0.1,0.1,0.1,0.2c0,0.1,0,0.1,0,0.2
		c0,0.1,0,0.2,0,0.3c0,0.1-0.1,0.2-0.1,0.3s-0.1,0.2-0.2,0.3c-0.1,0.1-0.1,0.2-0.2,0.3c-0.4,0.6-0.8,1.2-1.2,1.8
		c-0.4,0.6-0.8,1.2-1.3,1.7c-0.4,0.5-0.8,0.9-1.1,1.4c-0.4,0.4-0.7,0.8-1,1.1c-0.1,0.1-0.1,0.1-0.2,0.2c-0.1,0.1-0.2,0.1-0.3,0.1
		c0,0-0.1,0-0.1,0c0,0-0.1,0-0.1-0.1c0,0,0-0.1,0-0.1C96.1,440.5,96.1,440.5,96.1,440.5z"/>
</g>
<g>
	<path style="fill:#FFFFFF;stroke:#FFFFFF;stroke-miterlimit:10;" d="M452.7,483.7c0-0.1,0-0.1,0.1-0.2c0-0.1,0.1-0.1,0.1-0.2
		c0-0.1,0.1-0.1,0.1-0.2c0-0.1,0.1-0.2,0.1-0.3l0.2-0.8c0-0.2,0.1-0.4,0.1-0.6c0-0.2,0.1-0.4,0.2-0.7c0.1-0.2,0.1-0.4,0.2-0.6
		c0.1-0.2,0.2-0.4,0.2-0.7c0.1-0.2,0.2-0.5,0.2-0.7c0.1-0.2,0.2-0.5,0.2-0.8c0,0,0,0,0,0c0,0,0,0,0,0c0,0,0,0-0.1,0
		c-0.1,0-0.1,0-0.2,0c-0.1,0-0.1-0.1-0.1-0.1c0,0-0.1-0.1-0.1-0.1c0-0.1,0-0.1,0-0.2c0-0.1,0-0.3,0.1-0.4c0-0.1,0.1-0.2,0.1-0.2
		c0.1,0,0.1-0.1,0.2-0.1c0.1,0,0.1,0,0.2-0.1c0.1,0,0.1,0,0.2,0c0,0,0.1,0,0.1-0.1c0-0.1,0.1-0.1,0.1-0.2c0-0.1,0.1-0.1,0.1-0.2
		c0-0.1,0.1-0.1,0.2-0.2c0.1,0,0.1-0.1,0.2-0.1c0.1,0,0.1,0,0.2,0.1c0.1,0,0.1,0.1,0.1,0.1c0,0.1,0.1,0.1,0.1,0.2
		c0,0.1,0.1,0.1,0.1,0.2c0.3,0,0.6,0,0.9,0.1c0.2,0,0.4,0.1,0.6,0.1c0.2,0,0.5,0.1,0.7,0.2c0.3,0.1,0.5,0.2,0.7,0.4
		c0.2,0.1,0.4,0.3,0.5,0.5c0.1,0.2,0.2,0.4,0.2,0.7c0,0.1,0,0.3,0,0.4l0,0.2c0,0.1-0.1,0.3-0.2,0.4c-0.1,0.1-0.2,0.2-0.3,0.3
		c-0.3,0.3-0.6,0.5-1,0.7c-0.4,0.2-0.7,0.3-1.1,0.5c-0.4,0.1-0.8,0.2-1.2,0.3c-0.4,0.1-0.8,0.2-1.2,0.2l-0.1,0c-0.1,0-0.1,0-0.1,0.1
		c-0.1,0.2-0.1,0.4-0.2,0.6c0,0.2-0.1,0.3-0.1,0.5c0,0.2-0.1,0.3-0.1,0.5c0,0.2-0.1,0.3-0.1,0.5c0,0.1,0,0.1-0.1,0.2
		c0,0.1-0.1,0.2-0.2,0.2c-0.1,0.1-0.1,0.1-0.2,0.2c-0.1,0.1-0.2,0.1-0.2,0.1c-0.1,0-0.1,0-0.2,0c0,0-0.1-0.1-0.1-0.1
		c0-0.1,0-0.1-0.1-0.2c0-0.1,0-0.1,0-0.2C452.7,483.8,452.7,483.8,452.7,483.7C452.7,483.7,452.7,483.7,452.7,483.7z M454.6,480.1
		C454.6,480.1,454.6,480.1,454.6,480.1c0,0.1,0,0.2-0.1,0.2c0,0,0,0.1,0,0.1c0,0,0,0.1,0,0.1c0,0,0,0,0,0c0,0,0,0,0,0c0,0,0,0,0.1,0
		c0.1,0,0.1,0,0.2,0c0.1,0,0.2,0,0.2,0c0.1,0,0.2,0,0.2-0.1c0.2,0,0.4-0.1,0.7-0.2c0.2-0.1,0.5-0.2,0.7-0.2c0.2-0.1,0.5-0.2,0.7-0.3
		c0.2-0.1,0.4-0.2,0.6-0.3c0.2-0.1,0.3-0.2,0.4-0.4c0.1-0.1,0.2-0.3,0.2-0.4c0-0.1,0-0.2,0-0.2c0-0.1,0-0.1-0.1-0.2
		c-0.1-0.2-0.2-0.3-0.4-0.4c-0.1-0.1-0.3-0.2-0.5-0.2c-0.2,0-0.4-0.1-0.6-0.1c-0.2,0-0.4,0-0.6,0c0,0-0.1,0-0.2,0
		c-0.1,0-0.2,0-0.3,0c-0.1,0-0.2,0-0.3,0c-0.1,0-0.2,0-0.2,0.1c0,0,0,0,0,0c0,0,0,0,0,0.1c0,0.1-0.1,0.2-0.1,0.3
		c0,0.1-0.1,0.2-0.1,0.4c-0.1,0.1-0.1,0.3-0.2,0.5c-0.1,0.2-0.1,0.3-0.2,0.5c-0.1,0.2-0.1,0.3-0.1,0.4
		C454.7,479.9,454.7,480,454.6,480.1z"/>
	<path style="fill:#FFFFFF;stroke:#FFFFFF;stroke-miterlimit:10;" d="M459.6,483.3c0.2-0.8,0.4-1.5,0.6-2.2c0.2-0.7,0.4-1.5,0.6-2.2
		c0-0.1,0-0.2,0.1-0.3c0-0.1,0-0.2,0.1-0.3c0-0.1,0-0.2,0-0.3c0-0.1,0-0.2,0-0.3c0-0.1,0-0.1,0-0.2c0-0.1,0-0.1,0-0.2
		c0-0.1,0-0.2,0-0.2c0-0.2,0.1-0.4,0.2-0.5c0.1-0.1,0.2-0.1,0.4-0.1c0.1,0,0.1,0,0.2,0c0.1,0,0.1,0,0.2,0.1c0.1,0,0.2,0,0.2,0.1
		c0.1,0,0.2,0,0.2,0c0.1,0,0.1,0,0.2,0c0.1,0,0.1,0,0.2,0c0.1,0,0.2,0,0.3,0c0.1,0,0.3,0,0.4,0c0.1,0,0.2,0,0.3,0c0.1,0,0.3,0,0.4,0
		c0.1,0,0.3,0.1,0.4,0.1c0.1,0,0.3,0.1,0.4,0.2c0.1,0.1,0.2,0.2,0.3,0.3c0.1,0.1,0.2,0.2,0.2,0.4c0,0.1,0,0.1,0,0.2
		c0,0.1,0,0.1,0,0.2c0,0.2-0.1,0.4-0.2,0.6c-0.1,0.2-0.3,0.4-0.5,0.6c-0.2,0.2-0.4,0.4-0.7,0.5c-0.1,0.1-0.2,0.1-0.4,0.2
		c-0.1,0.1-0.3,0.1-0.4,0.2c-0.1,0.1-0.2,0.1-0.4,0.2c-0.1,0.1-0.2,0.1-0.2,0.1c0.1,0.1,0.2,0.1,0.3,0.2c0.1,0.1,0.2,0.1,0.4,0.2
		c0.1,0.1,0.2,0.2,0.4,0.3c0.1,0.1,0.3,0.3,0.4,0.4c0.1,0.2,0.3,0.4,0.4,0.6c0.1,0.2,0.3,0.5,0.4,0.8c0,0.1,0.1,0.2,0.1,0.3
		c0,0.1,0,0.1,0,0.2c0,0.1-0.1,0.1-0.1,0.2c0,0.1-0.1,0.1-0.2,0.1c-0.1,0-0.1,0.1-0.2,0.1c-0.1,0-0.2,0-0.3-0.1
		c-0.1-0.1-0.1-0.2-0.2-0.3c-0.1-0.1-0.1-0.3-0.2-0.5c-0.1-0.2-0.2-0.4-0.3-0.5c-0.1-0.2-0.2-0.4-0.4-0.5c-0.1-0.2-0.3-0.3-0.5-0.4
		c-0.2-0.1-0.3-0.2-0.5-0.3c-0.2-0.1-0.3-0.1-0.5-0.1h-0.1c-0.1,0-0.2,0-0.3,0c-0.1,0-0.2,0-0.2,0c-0.1,0-0.2-0.1-0.2-0.2
		c0-0.1-0.1-0.2-0.1-0.3v-0.1l-0.4,1.6c0,0,0,0.1-0.1,0.2c0,0.1,0,0.2-0.1,0.3c0,0.1-0.1,0.2-0.1,0.3c0,0.1-0.1,0.2-0.1,0.3
		c0,0.1-0.1,0.2-0.1,0.3c0,0.1,0,0.1,0,0.2c0,0.1-0.1,0.1-0.2,0.2c-0.1,0-0.1,0.1-0.2,0.1c-0.1,0-0.2,0-0.3-0.1
		c-0.1-0.1-0.1-0.2-0.1-0.3c0,0,0-0.1,0-0.1C459.5,483.4,459.5,483.4,459.6,483.3z M462,477.7c0,0.1,0,0.2-0.1,0.3
		c0,0.1-0.1,0.3-0.1,0.4c0,0.2-0.1,0.3-0.1,0.5c-0.1,0.2-0.1,0.4-0.2,0.5c-0.1,0.2-0.1,0.4-0.2,0.5c0,0.2-0.1,0.3-0.1,0.5
		c0.1-0.1,0.2-0.2,0.3-0.2c0.1-0.1,0.3-0.1,0.4-0.2c0.1,0,0.3-0.1,0.5-0.2c0.2-0.1,0.4-0.2,0.6-0.3c0.2-0.1,0.4-0.2,0.6-0.4
		c0.2-0.1,0.4-0.3,0.6-0.4c0.2-0.1,0.3-0.3,0.4-0.4c0.1-0.1,0.2-0.3,0.2-0.4c0-0.1,0-0.2-0.1-0.3c-0.1-0.1-0.2-0.1-0.3-0.2
		c-0.1,0-0.3-0.1-0.4-0.1c-0.2,0-0.3,0-0.4,0c-0.2,0-0.5,0-0.7,0C462.5,477.6,462.2,477.7,462,477.7z"/>
	<path style="fill:#FFFFFF;stroke:#FFFFFF;stroke-miterlimit:10;" d="M466.6,481.4c0.1-0.2,0.1-0.5,0.3-0.8c0.1-0.3,0.2-0.5,0.4-0.8
		c0.2-0.3,0.3-0.5,0.5-0.8c0.2-0.3,0.4-0.5,0.6-0.7c0.2-0.2,0.4-0.5,0.6-0.7c0.2-0.2,0.4-0.4,0.7-0.6c0.1-0.1,0.2-0.1,0.3-0.1
		c0.1,0,0.2,0,0.3,0c0.1,0,0.2,0,0.3,0c0.1,0,0.2,0.1,0.2,0.2c0,0,0.1,0.1,0.1,0.1c0,0,0.1,0,0.1,0c0,0,0,0,0,0c0,0,0,0,0-0.1
		c0,0,0,0,0-0.1c0,0,0,0,0.1,0c0.1,0,0.1,0,0.2-0.1c0.1,0,0.2,0,0.2,0c0.1,0,0.3,0,0.4,0.1c0.1,0.1,0.3,0.1,0.4,0.2
		c0.3,0.2,0.4,0.5,0.6,0.8c0.1,0.3,0.2,0.7,0.2,1.1c0,0.3,0,0.7-0.1,1.1c-0.1,0.3-0.2,0.7-0.4,1c-0.2,0.3-0.4,0.6-0.6,0.9
		c-0.2,0.3-0.5,0.5-0.7,0.8c-0.3,0.2-0.5,0.4-0.8,0.6c-0.3,0.2-0.6,0.3-0.9,0.4c-0.3,0.1-0.7,0.1-1,0.1c-0.3,0-0.6,0-0.8-0.1
		c-0.2-0.1-0.5-0.2-0.6-0.4c-0.2-0.2-0.3-0.4-0.4-0.6c-0.1-0.2-0.1-0.5-0.1-0.8c0-0.1,0-0.3,0-0.4
		C466.5,481.7,466.5,481.6,466.6,481.4z M467.4,481.8c0,0.2-0.1,0.3-0.1,0.4c0,0.2,0,0.3,0.1,0.5c0.1,0.1,0.2,0.3,0.3,0.4
		c0.1,0.1,0.3,0.2,0.4,0.2c0.2,0,0.3,0.1,0.5,0.1c0.2,0,0.5,0,0.7-0.1c0.2-0.1,0.5-0.2,0.7-0.3c0.2-0.1,0.4-0.3,0.7-0.5
		c0.2-0.2,0.4-0.4,0.6-0.7c0.2-0.2,0.3-0.5,0.5-0.8c0.1-0.3,0.3-0.6,0.3-0.9c0-0.1,0.1-0.2,0.1-0.4c0-0.1,0-0.3,0-0.4
		c0-0.2,0-0.4-0.1-0.5c0-0.2-0.1-0.3-0.2-0.5c-0.1-0.1-0.2-0.2-0.4-0.3c-0.2-0.1-0.4-0.1-0.6-0.1c0,0-0.1,0-0.1,0c0,0,0,0.1-0.1,0.1
		c0,0,0,0.1-0.1,0.1c0,0,0,0.1-0.1,0.1c0,0-0.1,0.1-0.1,0.1c-0.1,0-0.1,0-0.2,0c-0.1,0-0.1,0-0.1,0c0,0-0.1-0.1-0.1-0.1
		c0,0,0,0-0.1,0c0,0,0,0,0,0c0,0-0.1,0-0.1,0c0,0-0.1,0.1-0.1,0.1c-0.1,0-0.1,0.1-0.1,0.1c0,0-0.1,0.1-0.1,0.1
		c-0.2,0.2-0.4,0.5-0.7,0.8c-0.2,0.3-0.4,0.6-0.6,0.8c-0.2,0.3-0.4,0.6-0.5,0.9C467.6,481.2,467.5,481.5,467.4,481.8z"/>
	<path style="fill:#FFFFFF;stroke:#FFFFFF;stroke-miterlimit:10;" d="M474.1,481.7c0.1,0,0.1,0,0.1,0.1c0,0,0.1,0.1,0.1,0.2
		c0,0.1,0,0.1,0,0.2c0,0.1,0,0.1,0,0.2v0.2c0.1,0.1,0.2,0.2,0.3,0.4c0.1,0.1,0.2,0.2,0.4,0.4c0.1,0.1,0.3,0.2,0.5,0.3
		c0.2,0.1,0.3,0.1,0.5,0.1c0.2,0,0.4,0,0.6-0.1c0.2-0.1,0.3-0.2,0.5-0.4c0.1-0.2,0.3-0.3,0.4-0.5c0.1-0.2,0.2-0.4,0.3-0.6
		c0.1-0.2,0.2-0.4,0.3-0.6c0.1-0.2,0.1-0.4,0.2-0.6c0.1-0.2,0.1-0.3,0.1-0.5c0-0.1,0.1-0.2,0.1-0.3c0.1-0.4,0.2-0.7,0.2-1
		c0.1-0.3,0.1-0.6,0.1-0.9c0-0.1,0-0.1-0.1-0.1l-1.2,0.3c-0.1,0-0.1,0-0.2,0c-0.1,0-0.2,0-0.3-0.1c-0.1-0.1-0.1-0.2-0.1-0.3
		c0-0.1,0-0.3,0-0.4c0-0.1,0.1-0.2,0.1-0.2c0.1,0,0.1-0.1,0.2-0.1c0.1,0,0.2,0,0.4,0h0.1c0.1,0,0.2,0,0.3-0.1c0.1,0,0.3-0.1,0.4-0.1
		c0.2,0,0.3-0.1,0.5-0.1c0.2,0,0.3-0.1,0.5-0.1c0.2,0,0.4-0.1,0.5-0.1c0.2,0,0.3-0.1,0.5-0.1c0,0,0,0,0.1,0c0.1,0,0.1,0,0.2,0
		c0.1,0,0.1,0,0.2,0c0.1,0,0.1,0,0.1,0c0,0,0.1,0,0.1,0c0,0,0.1,0.1,0.1,0.1c0,0,0,0.1,0.1,0.1c0,0,0,0.1,0,0.1c0,0.1,0,0.2-0.1,0.3
		c-0.1,0.1-0.2,0.1-0.3,0.2c-0.1,0.1-0.2,0.1-0.4,0.1c-0.1,0-0.3,0.1-0.4,0.1c-0.1,0-0.2,0.1-0.3,0.1c-0.1,0-0.1,0.1-0.1,0.1
		c0,0.1,0,0.3,0,0.5c0,0.2,0,0.3-0.1,0.5c0,0,0,0.1,0,0.3c0,0.2-0.1,0.3-0.1,0.6c0,0.2-0.1,0.5-0.1,0.7c-0.1,0.3-0.1,0.5-0.2,0.8
		c-0.1,0.3-0.2,0.6-0.3,0.9c-0.1,0.3-0.3,0.6-0.4,0.9c-0.2,0.3-0.4,0.6-0.6,0.8c-0.2,0.3-0.4,0.5-0.7,0.6c-0.1,0-0.1,0.1-0.2,0.1
		c-0.1,0-0.2,0.1-0.3,0.1c-0.1,0-0.2,0-0.3,0.1c-0.1,0-0.2,0-0.3,0c-0.2,0-0.4,0-0.6-0.1c-0.2,0-0.4-0.1-0.6-0.2
		c-0.2-0.1-0.4-0.2-0.6-0.3c-0.2-0.1-0.4-0.3-0.5-0.4c-0.1-0.1-0.3-0.3-0.3-0.5c-0.1-0.2-0.1-0.3-0.1-0.5c0-0.1,0-0.3,0-0.4
		c0-0.1,0.1-0.2,0.1-0.2c0.1-0.1,0.1-0.1,0.3-0.1C473.8,481.7,474,481.7,474.1,481.7z"/>
	<path style="fill:#FFFFFF;stroke:#FFFFFF;stroke-miterlimit:10;" d="M480.6,483.6c0-0.1,0-0.2,0.1-0.4c0.1-0.4,0.2-0.9,0.4-1.3
		c0.1-0.4,0.3-0.9,0.4-1.3c0.1-0.4,0.2-0.8,0.3-1.1c0.1-0.3,0.2-0.5,0.2-0.8s0.1-0.4,0.2-0.5c0.1-0.2,0.1-0.3,0.2-0.5
		c0-0.1,0.1-0.2,0.1-0.3c0-0.1,0.1-0.2,0.2-0.3c0.1-0.1,0.1-0.1,0.2-0.2c0.1-0.1,0.1-0.1,0.2-0.1c0.1,0,0.2,0,0.3,0.1
		c0.1,0,0.1,0.1,0.1,0.1l0,0.2c0,0,0.1,0,0.2,0c0.1,0,0.2,0,0.2,0c0.1,0,0.2,0,0.2-0.1c0.1,0,0.1,0,0.2,0c0.2-0.1,0.4-0.1,0.6-0.2
		c0.2,0,0.4-0.1,0.5-0.1c0.2,0,0.3,0,0.5-0.1c0.2,0,0.3,0,0.5,0c0.2,0,0.3,0,0.4,0c0.1,0,0.2,0,0.2,0.1c0.1,0,0.1,0.1,0.1,0.1
		c0,0,0,0.1,0,0.1c0,0,0,0.1,0,0.1c0,0-0.1,0.1-0.1,0.1c0,0-0.1,0.1-0.2,0.1s-0.2,0-0.3,0.1c0,0-0.1,0-0.2,0c-0.1,0-0.2,0-0.3,0.1
		c-0.1,0-0.2,0-0.4,0.1c-0.1,0-0.2,0-0.2,0h0c0,0-0.1,0-0.1,0c-0.1,0-0.2,0-0.3,0.1c-0.1,0-0.2,0.1-0.3,0.1c-0.1,0-0.2,0.1-0.4,0.1
		c-0.1,0-0.2,0.1-0.3,0.1c-0.1,0-0.2,0.1-0.2,0.1c-0.2,0.1-0.4,0.2-0.5,0.3c-0.1,0.1-0.2,0.3-0.3,0.4c0,0,0,0.1-0.1,0.2
		c0,0.1-0.1,0.2-0.1,0.2c0,0.1-0.1,0.2-0.1,0.3c0,0.1-0.1,0.2-0.1,0.3c0,0.1-0.1,0.2-0.1,0.3c0,0.1,0,0.1-0.1,0.2c0,0,0,0.1,0,0.1
		c0,0,0,0,0,0.1c0,0,0,0,0,0c0.1,0,0.2,0,0.3-0.1c0.2,0,0.3-0.1,0.5-0.2c0.2-0.1,0.4-0.1,0.7-0.2c0.2-0.1,0.5-0.1,0.7-0.2
		c0.2-0.1,0.4-0.1,0.6-0.2c0.2,0,0.3-0.1,0.4-0.1c0.1,0,0.2,0,0.2,0.1c0,0,0.1,0.1,0.1,0.1c0,0.1,0,0.2-0.1,0.3
		c-0.1,0.1-0.2,0.2-0.3,0.2c0,0-0.1,0-0.2,0.1c-0.1,0-0.2,0.1-0.3,0.1c-0.1,0-0.2,0.1-0.4,0.1c-0.1,0-0.2,0.1-0.2,0.1
		c-0.3,0.1-0.6,0.2-0.8,0.3c-0.2,0.1-0.4,0.1-0.5,0.2c-0.1,0.1-0.2,0.1-0.3,0.1c-0.1,0-0.1,0-0.2,0.1c-0.1,0-0.1,0-0.2,0.1
		c-0.1,0-0.2,0-0.3,0.1c0,0.1-0.1,0.2-0.1,0.3c0,0.1-0.1,0.3-0.1,0.4c0,0.2-0.1,0.3-0.1,0.4c0,0.1,0,0.2,0,0.3c0,0.1,0,0.1,0,0.1
		c0,0,0,0,0.1,0.1c0,0,0,0,0.1,0c0,0,0,0,0.1,0c0.2,0,0.3,0,0.6-0.1c0.2,0,0.4-0.1,0.7-0.2c0.2-0.1,0.4-0.2,0.5-0.2
		c0.2-0.1,0.3-0.2,0.4-0.2c0.1-0.1,0.3-0.1,0.4-0.2c0.1-0.1,0.3-0.1,0.4-0.1c0,0,0.1,0,0.1,0c0,0,0.1,0,0.1,0c0,0,0.1,0,0.1,0.1
		c0,0,0,0.1,0,0.1c0,0.1-0.1,0.2-0.1,0.3c-0.1,0.1-0.2,0.2-0.3,0.3c-0.1,0.1-0.3,0.2-0.4,0.2c-0.2,0.1-0.3,0.2-0.5,0.2
		c-0.2,0.1-0.3,0.1-0.5,0.2c-0.2,0.1-0.3,0.1-0.4,0.2c-0.3,0.1-0.6,0.2-0.9,0.2c-0.3,0.1-0.5,0.1-0.8,0.1c-0.3,0-0.4,0-0.6-0.1
		C480.7,484,480.6,483.8,480.6,483.6z"/>
	<path style="fill:#FFFFFF;stroke:#FFFFFF;stroke-miterlimit:10;" d="M486.8,481.8c0-0.2,0-0.4,0.1-0.7c0-0.2,0.1-0.5,0.2-0.7
		c0.2-0.3,0.3-0.6,0.5-0.9s0.4-0.6,0.6-0.8c0.2-0.2,0.4-0.5,0.6-0.7c0.2-0.2,0.4-0.3,0.6-0.5l0,0c0.1-0.1,0.2-0.1,0.4-0.2
		c0.1-0.1,0.3-0.2,0.4-0.2c0.1-0.1,0.3-0.1,0.4-0.2c0.1,0,0.3-0.1,0.4-0.1c0.1,0,0.3,0,0.4,0.1c0.1,0.1,0.2,0.1,0.3,0.2
		c0.1,0.1,0.2,0.2,0.2,0.3c0.1,0.1,0.1,0.3,0.1,0.4c0,0.1,0,0.2,0,0.2c0,0.1,0,0.1-0.1,0.1c0,0-0.1,0-0.1,0.1c0,0-0.1,0-0.1,0
		c-0.1,0-0.1,0-0.2,0c0,0-0.1-0.1-0.1-0.1c0,0,0-0.1-0.1-0.1c0-0.1,0-0.1,0-0.1c0,0,0-0.1-0.1-0.1c0,0-0.1,0-0.1,0
		c-0.1,0-0.3,0-0.4,0.1c-0.2,0.1-0.3,0.1-0.5,0.2c-0.2,0.1-0.3,0.2-0.5,0.3c-0.2,0.1-0.3,0.3-0.5,0.4c-0.1,0.1-0.3,0.3-0.4,0.4
		c-0.1,0.1-0.2,0.2-0.3,0.3c-0.1,0.2-0.3,0.3-0.4,0.5s-0.2,0.3-0.3,0.5c-0.1,0.2-0.1,0.4-0.2,0.6s-0.1,0.4-0.1,0.6
		c0,0.2,0,0.3,0.1,0.4c0,0.1,0.1,0.2,0.1,0.3c0.1,0.1,0.1,0.2,0.2,0.2c0.1,0,0.2,0.1,0.3,0.1c0.3,0,0.5,0,0.8-0.1
		c0.2-0.1,0.5-0.1,0.7-0.2c0.2-0.1,0.4-0.2,0.6-0.3c0.2-0.1,0.4-0.3,0.6-0.4h0.1c0,0,0.1,0,0.1,0c0,0,0.1,0.1,0.1,0.1
		c0,0,0.1,0.1,0.1,0.1c0,0,0,0.1,0,0.1c0,0.1,0,0.2-0.1,0.3c-0.1,0.1-0.2,0.2-0.3,0.3c-0.1,0.1-0.3,0.2-0.5,0.3
		c-0.2,0.1-0.3,0.2-0.5,0.2c-0.2,0.1-0.3,0.1-0.5,0.2c-0.1,0-0.3,0.1-0.3,0.1c-0.1,0-0.1,0-0.2,0c-0.1,0-0.1,0-0.2,0
		c-0.1,0-0.2,0-0.3,0c-0.1,0-0.3,0-0.5,0c-0.1,0-0.2,0-0.3-0.1c-0.1,0-0.2-0.1-0.3-0.1c-0.1-0.1-0.1-0.1-0.2-0.2
		c-0.1-0.1-0.1-0.1-0.1-0.1c-0.2-0.2-0.3-0.5-0.4-0.7C486.9,482.3,486.8,482.1,486.8,481.8z"/>
	<path style="fill:#FFFFFF;stroke:#FFFFFF;stroke-miterlimit:10;" d="M494.9,483.1c0.1-0.5,0.3-1.1,0.4-1.7c0.2-0.6,0.3-1.1,0.5-1.7
		c0.1-0.2,0.1-0.4,0.2-0.6c0-0.2,0.1-0.4,0.1-0.5c0-0.2,0.1-0.3,0.1-0.4c0-0.1,0-0.2,0-0.3c0,0,0,0,0-0.1s0-0.1,0-0.1
		c0,0-0.1,0-0.2,0.1c-0.1,0-0.2,0.1-0.4,0.1c-0.2,0.1-0.3,0.1-0.5,0.2c-0.2,0.1-0.3,0.1-0.5,0.2c-0.1,0.1-0.2,0.1-0.3,0.1
		c-0.1,0-0.1,0.1-0.2,0.1c-0.1,0-0.1,0-0.2,0c0,0-0.1,0-0.1,0c-0.1,0-0.2,0-0.3-0.1c-0.1-0.1-0.1-0.2-0.1-0.3c0-0.1,0-0.1,0-0.2
		c0-0.1,0-0.1,0.1-0.1c0,0,0.1-0.1,0.1-0.1c0.1,0,0.1-0.1,0.2-0.1c0.8-0.4,1.7-0.8,2.5-1c0.9-0.2,1.7-0.3,2.6-0.3c0.1,0,0.1,0,0.2,0
		c0.1,0,0.2,0,0.3,0c0.1,0,0.2,0,0.3,0c0.1,0,0.2,0,0.3,0.1c0.1,0,0.1,0.1,0.2,0.1c0.1,0.1,0.1,0.1,0.1,0.2c0,0.1,0,0.1,0,0.2
		c0,0.1,0,0.1-0.1,0.2c0,0-0.1,0.1-0.1,0.1c0,0-0.1,0-0.2,0c-0.1,0-0.3,0-0.4,0c-0.2,0-0.3,0-0.5,0c-0.3,0-0.6,0-0.9,0
		c-0.3,0-0.6,0.1-0.9,0.1c0,0,0,0,0,0.1c0,0,0,0.1,0,0.1c0,0.2,0,0.3,0,0.5c0,0.1,0,0.3-0.1,0.4c0,0.1-0.1,0.3-0.1,0.4
		c0,0.2-0.1,0.3-0.2,0.6c-0.1,0.2-0.1,0.5-0.2,0.8s-0.2,0.7-0.3,1.1l-0.2,1c-0.1,0.2-0.1,0.4-0.1,0.6c0,0.2-0.1,0.4-0.1,0.5
		c0,0.1-0.1,0.1-0.2,0.2c-0.1,0-0.2,0.1-0.3,0.1c-0.1,0-0.1,0-0.2-0.1c-0.1,0-0.1-0.1-0.1-0.1c0-0.1-0.1-0.1-0.1-0.2
		S494.9,483.2,494.9,483.1z"/>
</g>
<g>
	
		<image style="overflow:visible;opacity:0.6;" width="46" height="22" xlink:href="9F2E4293.png"  transform="matrix(1 0 0 1 50 480)">
	</image>
	<g>
		<rect x="55" y="485" style="fill:#FFFFFF;" width="32" height="8"/>
		<rect x="54.5" y="484.5" style="fill:none;stroke:#B3B3B3;stroke-miterlimit:10;" width="33" height="9"/>
	</g>
</g>
<path style="fill:none;stroke:#1A1A1A;stroke-miterlimit:10;" d="M730.6,448.5c0,0,2.4-9.3-8.2-10.7c0,0-7.6-0.9-7.3-11.3"/>
</svg>
